**ABCDEFGHIJKLMNOPQRSTUVWXYZabcdefghijklmnopqrstuvwxyz**************************
**PARASOLID !"#$%&'()*+,-./:;<=>?@[\]^_`{|}~0123456789**************************
**PART1;
MC=AMD64;
MC_MODEL=Intel64 Family 6 Model 60 Stepping 3, GenuineIntel;
MC_ID=unknown;
OS=Windows_NT;
OS_RELEASE=unknown;
FRU=Parasolid Version 29.0, build 201,  4-17-2017;
APPL=SOLIDWORKS 2017-2017317;
SITE=;
USER=unknown;
FORMAT=text;
GUISE=transmit;
KEY=Part3;
FILE=Part3.x_t;
DATE=Fri Apr 20 12:06:08 2018;
**PART2;
SCH=SCH_2900201_28101;
USFLD_SIZE=0;
**PART3;
**END_OF_HEADER*****************************************************************
T51 : TRANSMIT FILE created by modeller version 290020123 SCH_2900201_28101_1300
6203 0 12 33 CCCCCCI4 mesh1006 0 I8 polyline1008 0 CCCCCCCDI5 owner1040 0 CCCCCC
I13 boundary_mesh1006 0 I17 boundary_polyline1008 0 CCCA16 index_map_offset0 0 1
 dA9 index_map82 0 A17 node_id_index_map82 0 A20 schema_embedding_map82 0 A5 chi
ld12 0 A14 lowest_node_id0 0 1 dZ1 1159 0 2 0 0 0 0 0 0 1e3 1e-8 0 3 0 1 0 1 1 4
 5 6 7 0 0 8 9 10 0 0 0 0 0 0 70 11 CI9 list_type0 0 1 uI10 notransmit0 0 1 lCCC
DCCDI12 finger_index0 0 1 dI12 finger_block1012 0 CZ2 0 4 T1 0 0 2 20 1 11 11 13
 255 4 50 0 1 0 12 0 0 13 0 50 255 5 98 0 12 14 0 0 +0 .011 0 0 -1 0 0 0 -1 38 2
55 6 915 0 9 15 0 0 +16 17 18 19 19 29 255 7 163 0 10 20 0 -.03713674865291685 .
007 .0412445378139952 19 8 CCCCCCCA5 owner12 0 Z8 54 0 1 13 0 21 V0 16 255 9 913
 0 ?22 0 23 6 0 0 1 18 255 10 161 0 24 0 25 7 ?1 17 255 24 0 26 27 28 10 29 30 0
 31 +18 25 230 0 32 10 33 34 ?1 17 32 0 35 36 37 25 38 39 0 40 -18 33 237 0 36 2
5 41 42 ?1 29 34 286 0 25 42 43 -.0166869176962474 .007 .0513570518799382 29 42
 287 0 33 44 34 -.0171504431878098 .007 .052783636654381 29 43 285 0 45 34 46 -.
03613305274337855 .011 .0401298205757791 18 45 231 0 47 48 0 43 ?1 29 46 284 0 4
8 43 49 -.03713674865291685 .011 .0412445378139952 18 48 236 0 50 51 45 46 ?1 29
 49 283 0 51 46 20 -.0171504431878098 .011 .052783636654381 18 51 234 0 52 53 48
 49 ?1 29 20 282 0 53 49 7 -.0166869176962474 .011 .0513570518799382 18 53 232 0
 37 41 51 20 ?1 17 37 0 35 32 52 53 54 55 0 38 -18 41 235 0 29 33 53 44 ?1 17 29
 0 56 47 31 41 24 30 0 28 -29 44 289 0 41 0 42 -.03613305274337855 .007 .0401298
205757791 15 255 56 253 0 50 57 0 17 47 0 56 50 29 45 58 59 0 60 +17 31 0 56 29
 50 10 61 62 0 63 -16 30 214 0 ?24 64 65 66 0 0 1 17 28 0 26 24 40 41 67 65 0 58
 +15 26 257 0 28 68 0 17 40 0 26 28 27 25 36 69 0 67 -17 67 0 70 38 58 25 28 65
 0 0 -16 65 202 0 ?28 30 55 71 0 0 1 17 58 0 70 67 72 41 47 59 0 0 -15 70 190 0
 38 73 0 17 72 0 70 58 38 45 74 75 0 0 -16 59 205 0 ?47 62 69 76 0 0 1 16 62 217
 0 ?61 77 59 78 0 0 1 16 69 218 0 ?36 59 64 79 0 0 1 30 255 76 270 0 59 78 80 0
 +-.03613305274337855 .007 .0401298205757791 0 1 0 30 78 271 0 62 81 76 0 +-.037
13674865291685 .007 .0412445378139952 0 1 0 31 255 80 99 0 82 76 83 0 +0 .011 0
 0 -1 0 0 0 -1 .0555 16 82 159 0 ?84 85 39 80 0 0 1 31 83 100 0 85 80 86 0 +0 -.
004 0 0 -1 0 0 0 -1 .0555 16 85 59 0 ?87 88 82 83 0 0 1 31 86 101 0 88 83 89 0 +
0 -.004 0 0 -1 0 0 0 -1 .048 16 88 65 0 ?90 91 85 86 0 0 1 31 89 102 0 91 86 92
 0 +0 -.003 0 0 -1 0 0 0 -1 .048 16 91 71 0 ?93 94 88 89 0 0 1 31 92 103 0 94 89
 95 0 +0 -.003 0 0 -1 0 0 0 -1 .054 16 94 77 0 ?96 75 91 92 0 0 1 31 95 104 0 75
 92 97 0 +0 .011 0 0 -1 0 0 0 -1 .054 16 75 178 0 ?74 98 94 95 0 0 1 38 97 355 0
 98 95 99 0 +16 100 101 102 102 16 98 353 0 ?103 104 75 97 0 0 1 38 99 467 0 104
 97 105 0 +16 106 107 108 108 51 255 16 93 0 109 110 111 112 -0 0 0 0 -1 0 .0555
 0 0 -1 52 255 100 431 0 113 114 115 116 +.0550863114160934 -867791871906931e-33
 -.00676374855898571 .992546151641322 0 -.1218693434051476 .0022 .70710678118654
8 .707106781186547 -.1218693434051476 0 -.992546151641322 40 255 20 101 0 1 20 .
00012773126807628 .343851969164719 ??.0548829707777254 -.00157877279579477 -.008
2528491208393 .0549581015069235 -.001959293316385005 -.00773673566529768 .055050
2164542262 -.00218003735874567 -.00705150114109387 .0551364103534071 -.002157043
98171039 -.00634241699517678 .0552081868078818 -.00190062304105306 -.00568384635
489276 .0552614663362494 -.001438203770805124 -.00514007182513769 .0552947283517
26 -.000812753681753997 -.00476896388210613 .0553075095572687 -870020360787845e-
19 -.00461837488437619 .0552993645379458 .000656926610170084 -.00471489996705971
 .0552695350801901 .00132752779421054 -.00505257281190817 .0552178470741637 .001
840685990219925 -.00558921859424684 .0551465078925489 .00213684653857909 -.00625
401209281264 .0550612536540003 .002190279959390905 -.00696479332427312 .05497095
89138208 .00200478443373686 -.00764484637484784 .0548866903673042 .0016031520395
11085 -.00822807514086218 .054820846542532 .00102308415989128 -.0086559103715411
9 .054785352554845 .0003207540702350225 -.00887778944565256 .0547882340145088 -.
000427175300842629 -.00885998947919372 .0548300548358487 -.00113054155542132 -.0
0859738836495263 .0548829707777254 -.00157877279579477 -.0082528491208393 41 3 C
I8 term_use0 0 1 cCZ1 102 H?.0548829707777254 -.00157877279579477 -.008252849120
8393 14 255 113 394 117 ?118 68 119 4 100 -0 0 118 68 21 51 114 539 0 1 120 100
 121 +0 0 0 0 -1 0 .054 0 0 -1 51 115 428 0 118 100 122 123 +.0550863114160934 -
867791871906931e-33 -.00676374855898571 .992546151641322 0 -.1218693434051476 .0
012 -.1218693434051476 0 -.992546151641322 141 255 116 97 116 116 100 14 118 416
 124 ?125 113 126 4 115 -0 0 125 113 21 51 122 427 0 1 115 127 128 +0 0 0 0 -1 0
 .054 0 0 -1 141 123 129 123 123 115 38 129 432 0 130 131 71 0 +122 115 132 133
 133 16 130 387 0 ?134 135 136 129 0 0 1 31 131 434 0 136 137 129 0 +.0540937652
644521 -867791871906931e-33 -.00664187921558056 .992546151641322 0 -.12186934340
51476 -.1218693434051476 0 -.992546151641322 .0012 31 71 281 0 65 129 66 0 -0 .0
07 0 0 1 0 0 0 1 .054 40 20 132 0 1 20 676679505791278e-19 .3374433508202945 ??.
0534380133936323 -867791871906931e-33 -.00777037480061131 .0534477048318959 .000
397151156459723 -.00770343093709121 .0534752132980049 .000749525852297638 -.0075
1009738504601 .0535162361947571 .00101745887473292 -.00721196669064489 .05356473
6578218 .00117070372937666 -.00684244074187801 .0536142310287918 .00119194528414
283 -.00644315382334901 .0536589885470911 .00107885355423106 -.00605912106688313
 .053694744598772 .000844173599922692 -.00573362036349148 .0537188202234371 .000
514276421296976 -.00550348560478256 .0537298333460189 .0001263796602611834 -.005
39490580168305 .053727286768203 -.000275688165355192 -.00542020816272557 .053711
294297838 -.000646638990215675 -.00557645629867511 .0536826300708736 -.000944760
544216257 -.00584595831953497 .0536430986920938 -.001136417973297616 -.006198222
54443015 .0535959717113765 -.001199935262588584 -.00659331603317568 .05354612730
9895 -.001128196270178676 -.00698657642286399 .0534996739439566 -.00092932313305
1486 -.00733381809771243 .0534630619596527 -.00062565646829593 -.007596117817565
45 .0534418399624657 -.000251408213878691 -.0077440132635607 .0534380133936323 -
475900069114676e-33 -.00777037480061131 41 1 133 H?.0534380133936323 -4759000691
14676e-33 -.00777037480061131 30 66 280 0 30 71 138 0 +0 .007 0 -.66913060635886
2 0 .743144825477391 31 138 279 0 64 66 79 0 +0 .007 0 0 1 0 0 0 1 .0555 16 64 2
10 0 ?27 69 30 138 0 0 1 30 79 278 0 69 138 139 0 +0 .007 0 -.3090169943749515 0
 .951056516295152 30 139 276 0 135 79 140 0 +0 .011 0 -.669130606358862 0 .74314
4825477391 16 135 224 0 ?50 55 130 139 0 0 1 30 140 274 0 55 139 141 0 +0 .011 0
 -.3090169943749515 0 .951056516295152 16 55 206 0 ?54 65 135 140 0 0 1 30 141 2
73 0 39 140 81 0 +-.0166869176962474 .007 .0513570518799382 0 1 0 16 39 209 0 ?3
8 82 77 141 0 0 1 30 81 272 0 77 141 78 0 +-.0171504431878098 .007 .052783636654
381 0 1 0 16 77 213 0 ?52 39 62 81 0 0 1 17 52 0 35 37 36 51 142 77 0 54 +15 35
 245 0 37 143 0 17 36 0 35 52 32 33 40 69 0 27 +17 142 0 144 63 84 33 52 77 0 0
 -17 54 0 145 146 74 51 37 55 0 84 +15 145 197 0 54 12 0 17 146 0 145 60 54 48 8
4 82 0 0 -17 74 0 145 54 60 53 72 75 0 0 +17 84 0 144 142 61 51 146 82 0 0 +15 1
44 171 0 142 109 0 17 61 0 144 84 63 48 31 62 0 146 +17 63 0 144 61 142 10 27 64
 0 0 -17 27 0 26 40 24 33 63 64 0 142 +14 109 173 147 ?148 73 149 4 16 -0 0 148
 73 21 81 255 1 147 1141 150 109 151 0 124 152 153 14 148 80 152 ?154 109 155 4
 156 -0 0 154 109 21 14 73 192 157 ?109 12 158 4 14 -0 0 109 12 21 15 149 910 0
 22 109 159 13 21 53 0 0 0 0 0 0 8 12 14 12 199 160 ?73 0 145 4 5 -0 0 73 0 21 8
1 1 160 1144 150 12 161 0 157 162 163 80 255 1 150 164 165 9000 1 1 1 1 1 1 1 1
 0 FFFFTFTFFFFFFF1 81 1 161 1074 166 12 0 160 0 167 168 81 1 157 1143 150 73 167
 0 152 160 169 81 1 162 1145 150 125 170 0 160 171 172 82 255 1 163 324665584 14
 125 506 162 ?173 118 174 4 106 -0 0 173 118 21 81 1 170 1085 166 125 0 162 175
 176 177 81 1 171 1146 150 173 176 0 162 178 179 82 1 172 334364919 14 173 528 1
71 ?180 125 181 4 120 -0 0 180 125 21 81 1 176 1086 166 173 0 171 170 182 183 81
 1 178 1147 150 180 182 0 171 184 185 82 1 179 270467319 14 180 618 178 ?186 173
 187 4 188 -0 0 186 173 21 81 1 182 1087 166 180 0 178 176 189 190 81 1 184 1148
 150 186 189 0 178 191 192 82 1 185 355205367 14 186 640 184 ?193 180 194 4 195
 -0 0 193 180 21 81 1 189 1088 166 186 0 184 182 196 197 81 1 191 1149 150 193 1
96 0 184 198 199 82 1 192 250872055 14 193 730 191 ?200 186 201 4 202 -0 0 200 1
86 21 81 1 196 1089 166 193 0 191 189 203 204 81 1 198 1150 150 200 203 0 191 20
5 206 82 1 199 376570103 14 200 752 198 ?207 193 208 4 209 -0 0 207 193 21 81 1
 203 1090 166 200 0 198 196 210 211 81 1 205 1151 150 207 210 0 198 212 213 82 1
 206 231276791 14 207 842 205 ?214 200 215 4 216 -0 0 214 200 21 81 1 210 1091 1
66 207 0 205 203 217 218 81 1 212 1152 150 214 217 0 205 219 220 82 1 213 398459
127 14 214 864 212 ?221 207 222 4 223 -0 0 221 207 21 81 1 217 1092 166 214 0 21
2 210 224 225 81 1 219 1153 150 221 224 0 212 226 227 82 1 220 211681527 14 221
 954 219 ?228 214 229 4 17 -0 0 228 214 21 81 1 224 1093 166 221 0 219 217 230 2
31 81 1 226 1154 150 228 230 0 219 232 233 82 1 227 420872439 14 228 976 226 ?0
 221 234 4 235 -0 0 0 221 21 81 1 230 1094 166 228 0 226 224 0 236 81 1 232 1155
 150 237 238 0 226 239 240 82 1 233 192020727 14 237 68 232 ?143 154 241 4 111 -
0 0 143 154 21 81 1 238 1079 166 237 0 232 242 243 244 81 1 239 1156 150 143 243
 0 232 245 246 82 1 240 204341485 14 143 242 239 ?57 237 35 4 247 +0 0 57 237 21
 81 1 243 1080 166 143 0 239 238 248 249 81 1 245 1157 150 154 242 0 239 250 251
 82 1 246 317391088 14 154 74 245 ?237 148 252 4 253 -0 0 237 148 21 81 1 242 10
78 166 154 0 245 254 238 255 81 1 250 1158 150 57 248 0 245 256 257 82 1 251 204
996845 14 57 250 250 ?68 143 56 4 110 -0 0 68 143 21 81 1 248 1081 166 57 0 250
 243 258 259 81 1 256 1159 150 68 258 0 250 0 260 82 1 257 317849840 14 68 254 2
56 ?113 57 26 4 127 +0 0 113 57 21 81 1 258 1082 166 68 0 256 248 261 262 82 1 2
60 309919984 80 1 166 0 263 8001 0 0 0 0 3 5 0 0 0 FFFFTFTFFFFFFF2 81 1 261 1083
 166 113 0 117 258 175 264 83 255 3 262 .792156862745098 .819607843137255 .93333
3333333333 81 1 117 1139 150 113 261 0 0 124 265 81 1 175 1084 166 118 0 124 261
 170 266 83 3 264 .792156862745098 .819607843137255 .933333333333333 81 1 124 11
40 150 118 175 0 117 147 267 83 3 266 .792156862745098 .819607843137255 .9333333
33333333 82 1 267 290062583 82 1 265 314048759 79 255 15 263 SDL/TYSA_COLOUR50 1
27 269 0 68 122 247 0 +0 .007 0 0 1 0 0 0 1 50 247 267 0 143 127 110 0 +0 .007 0
 -.951056516295152 0 -.3090169943749515 -.3090169943749515 0 .951056516295152 50
 110 265 0 57 247 16 0 +0 .007 0 -.743144825477391 0 -.669130606358862 -.6691306
06358862 0 .743144825477391 83 3 259 .792156862745098 .819607843137255 .93333333
3333333 81 1 254 1077 166 148 0 152 151 242 268 83 3 255 .792156862745098 .81960
7843137255 .933333333333333 81 1 152 1142 150 148 254 0 147 157 269 81 1 151 107
6 166 109 0 147 167 254 270 83 3 268 .792156862745098 .819607843137255 .93333333
3333333 81 1 167 1075 166 73 0 157 161 151 271 83 3 270 .792156862745098 .819607
843137255 .933333333333333 83 3 271 .792156862745098 .819607843137255 .933333333
333333 82 1 269 205652205 15 252 131 0 272 154 273 51 253 95 0 154 111 156 0 +0
 0 0 0 -1 0 .048 0 0 -1 50 111 94 0 237 16 253 0 +9251858538543e-31 -.004 0 0 1
 0 0 0 1 50 156 96 0 148 253 14 0 +0 -.003 0 0 -1 0 0 0 -1 51 14 97 0 73 156 5 0
 +0 0 0 0 -1 0 .054 0 0 -1 17 272 0 252 272 272 0 93 91 0 0 -15 273 73 0 90 154
 0 17 90 0 273 90 90 0 274 88 0 0 +17 274 0 241 274 274 0 90 88 0 0 -15 241 130
 0 274 237 275 15 275 67 0 87 237 0 17 87 0 275 87 87 0 276 85 0 0 +17 276 0 277
 276 276 0 87 85 0 0 -15 277 129 0 276 109 144 17 93 0 278 93 93 0 272 91 0 0 +1
5 278 79 0 93 148 0 83 3 249 .792156862745098 .819607843137255 .933333333333333
 83 3 244 .792156862745098 .819607843137255 .933333333333333 83 3 236 .792156862
745098 .819607843137255 .933333333333333 15 234 979 0 279 228 280 51 235 988 0 2
28 17 281 282 +-.03340073378493825 -87764524741415e-32 .04432427080762505 -.6018
15023152041 0 .798635510047299 .0012 .798635510047299 0 .601815023152041 52 17 9
91 0 221 0 235 283 +-.03340073378493825 -87764524741415e-32 .04432427080762505 -
.601815023152041 0 .798635510047299 .0022 .707106781186547 .707106781186548 .798
635510047299 0 .601815023152041 51 281 987 0 1 235 216 284 +0 0 0 0 -1 0 .054 0
 0 -1 141 282 285 282 282 235 38 285 992 0 286 287 288 0 +281 235 289 290 290 16
 286 947 0 ?291 292 293 285 0 0 1 31 287 994 0 293 0 285 0 +-.03279891876178625
 -87764524741415e-32 .04352563529757775 -.601815023152041 0 .798635510047299 .79
8635510047299 0 .601815023152041 .0012 31 288 882 0 292 285 294 0 +-.02129484650
266525 -666164583706624e-33 .0501675145131581 -.3907311284892705 0 .920504853452
442 .920504853452442 0 .3907311284892705 .0012 40 20 289 0 1 20 676679505791261e
-19 .3374433508202965 ??-.03153162344695805 -87764524741415e-32 .043837845781918
2 -.0315865110710881 .0003971511564597235 .04379831410403865 -.0317446925760562
 .000749525852297638 .0436838012683384 -.0319876467488509 .00101745887473292 .04
35062116883409 -.0322871526683984 .00117070372937666 .04328440565108335 -.032608
75737503325 .00119194528414283 .043042640979106 -.0329160986061205 .001078853554
231062 .0428080652745736 -.03317508245770305 .000844173599922692 .04260767423744
935 -.0333573518832813 .000514276421296977 .0424651277560182 -.0334431080149501
 .0001263796602611824 .0423976240643315 -.03342313801801385 -.000275688165355192
5 .0424133687064444 -.03329963321169325 -.000646638990215676 .0425104037615111 -
.03308585783662345 -.000944760544216256 .04267699627685555 -.03280499935625575 -
.001136417973297616 .0428932630751737 -.0324880557333167 -.001199935262588584 .0
4313381776134485 -.03217054305240755 -.001128196270178676 .0433711443210021 -.03
18884890758677 -.000929323133051483 .04357894290202855 -.03167437362640395 -.000
625656468295931 .0437348151405144 -.03155324450782695 -.0002514082138786915 .043
82228612280845 -.03153162344695805 572770011970394e-33 .0438378457819182 41 1 29
0 H?-.03153162344695805 572770011970394e-33 .0438378457819182 16 292 830 0 ?295
 296 286 288 0 0 1 38 294 880 0 296 288 297 0 +298 223 299 300 300 16 296 835 0
 ?301 302 292 294 0 0 1 31 297 770 0 302 294 303 0 +-.03279891876178685 -8636426
30455814e-33 -.0435256352975773 -.601815023152052 0 -.79863551004729 -.798635510
04729 0 .601815023152052 .0012 51 298 875 0 1 223 202 304 +0 0 0 0 -1 0 .054 0 0
 -1 51 223 876 0 214 216 298 305 +-.02168557763115455 -666164583706624e-33 .0510
880193666105 -.3907311284892705 0 .920504853452442 .0012 .920504853452442 0 .390
7311284892705 40 20 299 0 1 20 676679505791304e-19 .337443350820294 ??-.01998966
47225602 -666164583706624e-33 .0501638645269644 -.02005248552812785 .00039715115
6459724 .0501387856269398 -.0202336715286574 .000749525852297638 .05006594188138
68 -.02051237173203275 .00101745887473292 .0499524034049104 -.0208566407827529 .
00117070372937666 .0498096429946974 -.0212271806228847 .00119194528414283 .04965
28629869762 -.02158214150501915 .00107885355423106 .0494996077566008 -.021881911
4089465 .000844173599922691 .0493678230539996 -.02209325176861475 .0005142764212
96976 .0492736057772171 -.02219279119772775 .0001263796602611844 .04922885351959
82 -.02216960542138125 -.000275688165355192 .0492392992990382 -.0220262943311725
 -.000646638990215675 .0493035734814076 -.0217785666212544 -.000944760544216256
 .0494135005431065 -.02145373116426085 -.001136417973297616 .0495553974772842 -.
02108800667577875 -.001199935262588584 .0497121310591521 -.02072251098726575 -.0
01128196270178674 .0498655947360768 -.0203985641926251 -.000929323133051486 .049
9989857785071 -.02015309997967495 -.000625656468295928 .0500984287299435 -.02001
44077677455 -.0002514082138786905 .0501539976642581 -.0199896647225602 -66233476
97011e-31 .0501638645269644 41 1 300 H?-.0199896647225602 -6623347697011e-31 .05
01638645269644 52 216 879 0 207 281 223 306 +-.02168557763115455 -66616458370662
4e-33 .0510880193666105 -.3907311284892705 0 .920504853452442 .0022 .70710678118
6548 .707106781186548 .920504853452442 0 .3907311284892705 141 305 294 305 305 2
23 141 306 15 306 306 216 38 15 803 0 23 307 6 0 +16 216 308 309 309 16 23 801 0
 ?310 9 311 15 0 0 1 38 307 691 0 311 105 15 0 +16 202 312 313 313 40 20 308 0 1
 20 .0001279681044554074 .344113382097024 ??-.02294234981865445 -.00169759053013
757 .0505361116905376 -.02333134389538975 -.001212968038847028 .0503577043960014
 -.0235959815363201 -.000539424004645937 .0502342478329042 -.0236472381137592 .0
002039396939671805 .050210139708939 -.0234721755441677 .000930327314812667 .0502
922158512008 -.02308787286581955 .00154892288259406 .0504697941994195 -.02254206
621632215 .001983313195342035 .0507159269924049 -.0219036890079761 .002186669739
207265 .0509948860949985 -.0212468859508629 .002145863861880025 .051272018074101
8 -.02063937063679295 .001873154799182175 .0515195727827501 -.0201413553027324 .
00139703989050842 .051716301168675 -.01980760353962475 .000761796674344582 .0518
450464559252 -.0196829121983161 3170627146390145e-20 .0518925135967933 -.0197907
255526051 -.000709959620738034 .0518514916092244 -.0201225326353417 -.0013716229
9676994 .0517236278729519 -.0206353585160499 -.001870434087329995 .0515211799060
744 -.02126035103000855 -.002149169085227685 .0512664361359439 -.021920116799214
2 -.00218457663265836 .0509878267776614 -.02254414904935245 -.00198219612332847
 .0507150011696794 -.02294234981865445 -.001697590530137575 .0505361116905376 41
 1 309 H?-.02294234981865445 -.001697590530137575 .0505361116905376 16 311 689 0
 ?314 23 315 307 0 0 1 38 105 579 0 315 99 307 0 +16 188 316 317 317 52 202 767
 0 193 298 209 318 +-.0334007337849389 -863642630455814e-33 -.0443242708076246 -
.601815023152052 0 -.79863551004729 .0022 .707106781186548 .707106781186547 -.79
863551004729 0 .601815023152052 40 20 312 0 1 20 .000127918882302984 .3441362143
422675 ??-.03356737569022665 -.00218965917423514 -.04419820462749575 -.033046619
8504818 -.002153329674875165 -.04458891024075095 -.03251382253564135 -.001891275
264698135 -.04497889887626 -.03207249406267395 -.001424105715037506 -.0452946478
582155 -.0317718724075546 -.000795238922789686 -.0455060229389261 -.031652842942
00465 -679395194776724e-19 -.0455888970440039 -.0317375985092653 .00067526573154
0817 -.0455299334599193 -.03201979665008765 .00134283631606432 -.04533191615724
 -.03246208925615665 .001851082380370695 -.0450162499673764 -.0330038256432597 .
002141247383068355 -.04462059494122995 -.03357673547219355 .002188459942864965 -
.0441910945217511 -.0341190786089023 .00199712604770587 -.0437737189975851 -.034
57937671574985 .00159042425342574 -.04341102055872745 -.034913255564387 .0010064
6492090816 -.04314295522904985 -.03508311347794095 .00030194589116775 -.04300494
33053215 -.0350641923306884 -.0004459968729374875 -.0430203721066717 -.034852962
7816791 -.00114703223146353 -.0431916772693408 -.03447208433422945 -.00171303585
495222 -.0434962688245069 -.03396854339570945 -.002075900481535435 -.04389063749
3363 -.03356737567668565 -.00218965918521144 -.04419820460358375 41 1 313 H?-.03
356737567668565 -.00218965918521144 -.04419820460358375 51 209 764 0 200 202 319
 320 +-.0334007337849389 -863642630455814e-33 -.0443242708076246 -.6018150231520
52 0 -.79863551004729 .0012 -.79863551004729 0 .601815023152052 141 318 307 318
 318 202 51 319 763 0 1 209 188 321 +0 0 0 0 -1 0 .054 0 0 -1 141 320 303 320 32
0 209 38 303 768 0 322 297 323 0 +319 209 324 325 325 16 322 723 0 ?326 327 302
 303 0 0 1 31 323 658 0 327 303 328 0 +-.02129484650266565 -867772846853817e-33
 -.0501675145131579 -.390731128489278 0 -.920504853452439 -.920504853452439 0 .3
90731128489278 .0012 40 20 324 0 1 20 676679505791307e-19 .337443350820293 ??-.0
334483486710722 -863642630455814e-33 -.04239348972635285 -.03339521930376805 .00
0397151156459723 -.04243535468984835 -.0332415417693476 .000749525852297637 -.04
255584449634055 -.0330038644627244 .00101745887473292 -.0427404367142653 -.03270
80957954652 .00117070372937666 -.0429672022528192 -.03238705040590715 .001191945
28414283 -.04320970916362695 -.032076847042072 .00107885355423106 -.043440486689
71745 -.0318128331898256 .000844173599922691 -.04363420269050795 -.0316255684548
224 .000514276421296972 -.04377012017243435 -.0315370421482912 .0001263796602611
82 -.04383394771791495 -.03155768134682185 -.0002756881653551925 -.0438190911363
1245 -.0316849999666656 -.000646638990215674 -.0437271171827323 -.03190406344961
925 -.000944760544216257 -.0435675422235713 -.03218936752783305 -.00113641797329
7616 -.04335717493285385 -.0325079650355978 -.001199935262588584 -.0431188150259
762 -.0328236163226293 -.001128196270178674 -.0428790183132126 -.033101109751331
5 -.000929323133051487 -.04266516768079445 -.03330996197997785 -.000625656468295
925 -.04250231091237785 -.03342743219472025 -.0002514082138786925 -.042409984400
6972 -.03344834867107215 386115968202616e-33 -.04239348972635285 41 1 325 H?-.03
344834867107215 386115968202616e-33 -.04239348972635285 16 327 606 0 ?329 330 32
2 323 0 0 1 38 328 656 0 330 323 331 0 +332 195 333 334 334 16 330 611 0 ?335 33
6 327 328 0 0 1 31 331 546 0 336 328 137 0 +.0540937652644521 -867785357859607e-
33 .00664187921558054 .992546151641322 0 .1218693434051474 .1218693434051474 0 -
.992546151641322 .0012 51 332 651 0 1 195 106 337 +0 0 0 0 -1 0 .054 0 0 -1 51 1
95 652 0 186 188 332 338 +-.0216855776311549 -867772846853817e-33 -.051088019366
6103 -.390731128489278 0 -.920504853452439 .0012 -.920504853452439 0 .3907311284
89278 40 20 333 0 1 20 676679505791272e-19 .337443350820292 ??-.0221988763708464
 -867772846853817e-33 -.04922610981859 -.02213719712148345 .0003971511564597235
 -.0492538780565001 -.02195893534422355 .00074952585229764 -.0493336108403613 -.
021683661170101 .00101745887473292 -.0494552205359581 -.0213418185473494 .001170
70372937666 -.0496036972522413 -.020971641846362 .00119194528414283 -.0497613327
621751 -.0206148227115827 .00107885355423106 -.0499102102236608 -.02031178705695
11 .000844173599922691 -.0500343012997391 -.02009720347002255 .00051427642129697
3 -.0501208780119075 -.0199958654923382 .0001263796602611824 -.0501613931546196
 -.02001948575084965 -.0002756881653551925 -.0501519709510158 -.0201652729767553
 -.000646638990215676 -.050093530178786 -.0204164340146588 -.000944760544216257
 -.0499916915309442 -.0207441557961813 -.001136417973297618 -.0498565943512366 -
.02111095407687445 -.001199935262588584 -.0497023904652895 -.02147524124698495 -
.001128196270178674 -.0495460796974271 -.02179622708529415 -.000929323133051488
 -.0494057130790184 -.0220382741282995 -.000625656468295929 -.049298219779683 -.
02217459078034865 -.000251408213878689 -.0492370543770043 -.0221988763708464 -46
868847754857e-32 -.0492261098185899 41 1 334 H?-.0221988763708464 -4686884775485
7e-32 -.0492261098185899 52 188 655 0 180 319 195 339 +-.0216855776311549 -86777
2846853817e-33 -.0510880193666103 -.390731128489278 0 -.920504853452439 .0022 .7
07106781186549 .707106781186546 -.920504853452439 0 .390731128489278 141 338 328
 338 338 195 141 339 105 339 339 188 52 106 543 0 125 332 120 340 +.055086311416
0934 -867785357859607e-33 .00676374855898568 .992546151641322 0 .121869343405147
4 .0022 .707106781186548 .707106781186547 .1218693434051474 0 -.992546151641322
 141 337 328 337 337 332 51 120 540 0 173 106 114 341 +.0550863114160934 -867785
357859607e-33 .00676374855898568 .992546151641322 0 .1218693434051474 .0012 .121
8693434051474 0 -.992546151641322 141 340 99 340 340 106 141 341 137 341 341 120
 38 137 544 0 342 331 131 0 +114 120 343 344 344 16 342 499 0 ?345 136 336 137 0
 0 1 40 20 343 0 1 20 676679505791277e-19 .337443350820293 ??.0537304998178047 -
867785357859607e-33 .00538826403667212 .0537237081925717 .0003971511564597235 .0
0545556395246189 .05370362792028 .000749525852297638 .00564980957202325 .0536713
079189521 .00101745887473292 .00594900884761762 .053628971215748 .00117070372937
666 .00631929160115838 .0535803992213955 .00119194528414283 .00671869178306946 .
0535309213177034 .00107885355423106 .0071021449490876 .0534868695146543 .0008441
7359992269 .00742662706229016 .053454555353304 .000514276421296975 .007655750255
88969 .0534389735072885 .0001263796602611834 .0077637690902885 .0534426237688636
 -.000275688165355192 .00773860224457174 .0534649061884487 -.000646638990215676
 .00758312641727529 .0535022918512825 -.000944760544216258 .00731469525408909 .0
535491551524373 -.001136417973297618 .0069633312760633 .0535990098101914 -.00119
9935262588584 .00656857270394502 .0536457842993927 -.001128196270178676 .0061749
3537642538 .0536847161611621 -.000929323133051486 .00582677017699021 .0537126477
547037 -.000625656468295929 .00556340463916898 .0537278352881758 -.0002514082138
78691 .00541476825419622 .0537304998178047 -656526261088159e-33 .005388264036672
12 41 1 344 H?.0537304998178047 -656526261088159e-33 .00538826403667212 17 345 0
 346 345 345 0 347 342 0 0 +16 136 382 0 ?348 130 342 131 0 0 1 16 336 494 0 ?34
9 342 330 331 0 0 1 17 349 0 350 349 349 0 351 336 0 0 +15 350 532 0 349 173 0 1
7 351 0 174 351 351 0 349 336 0 0 -15 174 509 0 351 125 352 15 352 510 0 353 125
 0 17 353 0 352 353 353 0 354 104 0 0 -17 354 0 355 354 354 0 353 104 0 0 +16 10
4 465 0 ?354 315 98 99 0 0 1 16 315 577 0 ?356 311 104 105 0 0 1 17 356 0 357 35
6 356 0 358 315 0 0 +15 357 574 0 356 109 355 17 358 0 359 358 358 0 356 315 0 0
 -15 359 622 0 358 180 0 15 355 462 0 354 109 360 15 360 350 0 103 109 277 17 10
3 0 360 103 103 0 361 98 0 0 +17 361 0 362 361 361 0 103 98 0 0 -15 362 398 0 36
1 113 0 17 348 0 363 348 348 0 364 136 0 0 +15 363 420 0 348 118 0 17 364 0 119
 364 364 0 348 136 0 0 -15 119 397 0 364 113 362 15 346 441 0 345 73 365 17 347
 0 181 347 347 0 345 342 0 0 -15 181 531 0 347 173 350 15 365 329 0 134 73 366 1
7 134 0 365 134 134 0 367 130 0 0 +15 366 85 0 96 73 70 17 96 0 366 96 96 0 368
 94 0 0 +17 368 0 155 368 368 0 96 94 0 0 -15 155 132 0 368 148 278 17 367 0 126
 367 367 0 134 130 0 0 -15 126 419 0 367 118 363 17 335 0 369 335 335 0 370 330
 0 0 +15 369 553 0 335 73 346 17 370 0 194 370 370 0 335 330 0 0 -15 194 643 0 3
70 186 371 15 371 644 0 329 186 0 17 329 0 371 329 329 0 372 327 0 0 +17 372 0 1
87 372 372 0 329 327 0 0 -15 187 621 0 372 180 359 17 326 0 373 326 326 0 374 32
2 0 0 +16 302 718 0 ?375 322 296 297 0 0 1 17 375 0 376 375 375 0 377 302 0 0 +1
5 376 756 0 375 200 0 17 377 0 201 377 377 0 375 302 0 0 -15 201 733 0 377 193 3
78 15 378 734 0 379 193 0 17 379 0 378 379 379 0 314 311 0 0 -17 314 0 380 314 3
14 0 379 311 0 0 +15 380 686 0 314 109 357 15 373 665 0 326 73 369 17 374 0 208
 374 374 0 326 322 0 0 -15 208 755 0 374 200 376 141 321 303 321 321 319 40 20 3
16 0 1 20 .000127938978408575 .34404104620806 ??-.0223448087476944 -.00207457472
0978705 -.0508031448108417 -.02175861814836975 -.00219851092646468 -.05105695384
83588 -.021107487292392 -.002105215834156485 -.0513295624392173 -.02051899239892
65 -.00178504736803982 -.051567634723078 -.02005246974441425 -.00126967373426372
2 -.0517508304971945 -.01976119766569385 -.000607428835062606 -.0518627522102074
 -.01968638763027155 .0001328311120547236 -.0518911952268465 -.019845197207361 .
000864794222994708 -.0518306680238732 -.0202214183741673 .001497231212626622 -.0
516850485047358 -.02076528428001045 .001951611164802905 -.0514689515025355 -.021
40444046543115 .002177900340023475 -.0512064442073633 -.02206201317643325 .00215
9997998967165 -.0509265900547335 -.0226699325087004 .001908247778606385 -.050658
9001069997 -.02317032250823795 .001449775205955346 -.0504319953488283 -.02351216
72073269 .000827179527423265 -.0502735317360408 -.02365352102621535 .00010274754
91843102 -.0502071801942948 -.02357063132048235 -.000641733637108437 -.050246147
5055939 -.0232676313314084 -.00131479779953822 -.0503871742830024 -.022780316240
02185 -.001831986322573775 -.0506093587393142 -.02234480874660615 -.002074574723
05374 -.050803144804998 41 1 317 H?-.02234480874660615 -.00207457472305374 -.050
803144804998 17 310 0 159 310 310 0 381 23 0 0 +15 159 798 0 310 109 380 17 381
 0 382 381 381 0 310 23 0 0 -15 382 846 0 381 207 0 141 304 294 304 304 298 17 3
01 0 383 301 301 0 384 296 0 0 +15 383 777 0 301 73 373 17 384 0 222 384 384 0 3
01 296 0 0 -15 222 867 0 384 214 385 15 385 868 0 295 214 0 17 295 0 385 295 295
 0 386 292 0 0 +17 386 0 215 386 386 0 295 292 0 0 -15 215 845 0 386 207 382 16
 293 942 0 ?387 286 0 287 0 0 1 17 387 0 280 387 387 0 388 293 0 0 +15 280 980 0
 387 228 0 17 388 0 229 388 388 0 387 293 0 0 -15 229 957 0 388 221 389 15 389 9
58 0 390 221 0 17 390 0 389 390 390 0 22 9 0 0 -17 22 0 149 22 22 0 390 9 0 0 +1
7 291 0 158 291 291 0 279 286 0 0 +15 158 889 0 291 73 383 17 279 0 234 279 279
 0 291 286 0 0 -141 284 285 284 284 281 141 283 6 283 283 17 83 3 231 .792156862
745098 .819607843137255 .933333333333333 83 3 225 .792156862745098 .819607843137
255 .933333333333333 83 3 218 .792156862745098 .819607843137255 .933333333333333
 83 3 211 .792156862745098 .819607843137255 .933333333333333 83 3 204 .792156862
745098 .819607843137255 .933333333333333 83 3 197 .792156862745098 .819607843137
255 .933333333333333 83 3 190 .792156862745098 .819607843137255 .933333333333333
 83 3 183 .792156862745098 .819607843137255 .933333333333333 83 3 177 .792156862
745098 .819607843137255 .933333333333333 82 1 169 323944695 83 3 168 .7921568627
45098 .819607843137255 .933333333333333 79 14 165 SWEntUnchanged82 1 153 3221752
23 17 60 0 145 74 146 45 50 135 0 72 -17 50 0 56 31 47 48 60 135 0 61 +17 38 0 7
0 72 67 53 32 39 0 74 +141 128 129 128 128 122 141 121 137 121 121 114 141 112 9
7 391 392 16 141 391 6 393 112 16 141 392 99 112 394 16 141 394 105 392 395 16 1
41 395 307 394 393 16 141 393 15 395 391 16 40 20 107 0 1 20 .000127977211667454
6 .3441482498707205 ??.0552245390804236 -.001794238490003405 .00552270617018572
 .0551642489176425 -.002090339719328555 .00609554274469261 .0550815833002085 -.0
02199646336484815 .00680214533380406 .0549915327722888 -.00206740051152613 .0074
9542015862284 .0549048205759359 -.001712499433089885 .00810621227974459 .0548336
430425979 -.001169081049063478 .00857447320113374 .0547902847146386 -.0004886846
95284802 .00884729907309787 .0547840156427654 .00025647479078566 .00888603567701
787 .0548173320107887 .000978202563339217 .00867813984785691 .0548840779704663 .
00158610401052815 .0082454827227871 .054971150884497 .00200542593409278 .0076434
6586529058 .0550632317339456 .00219173789529919 .00694913742948045 .055147751741
4652 .002134056326842815 .00624303434731263 .0552170405992073 .00184599954915287
 .00559718031382718 .0552674969401832 .001357079718431786 .00507481841712978 .05
52978334301391 .00071284646010741 .00473282346307028 .0553076420188021 -20946257
55831115e-20 .00461678831223971 .0552964286626914 -.000759991324655516 .00474920
805523205 .0552634321598989 -.001412729237712236 .00511889303543791 .05522453907
96659 -.00179423849022382 .0055227061698463 41 1 108 H?.0552245390796659 -.00179
423849022382 .0055227061698463 19 13 49 0 1 0 8 4 S0 40 20 18 0 1 20 .0001279758
931790744 .3441663282095525 ??-.03454573464130205 -.001631175118181205 .04343779
7114527 -.0348617581798438 -.00112797178307421 .04318457845817295 -.035065110838
03245 -.000440127664257885 .0430196234515889 -.0350826487456606 .000306321505579
894 .04300532242628345 -.0349066152105968 .001023199721238196 .043148328061923 -
.0345546559943358 .001620586176649585 .04343070053675295 -.0340697110319628 .002
02537676269091 .0438121534531065 -.0335115651490544 .00219543618721795 .04424053
572529025 -.03294354465053215 .002121774469871085 .0446651191183724 -.0324237615
772581 .00181925857885011 .0450438640125503 -.03200489629494915 .001318368653697
264 .0453424372211017 -.03173518076364295 .000665887212664931 .0455316187050154
 -.03165292190778705 -710373104240498e-19 .0455888422171427 -.0317756271232873 -
.000807166523929004 .0455034012016883 -.0320911155716996 -.001451039509433302 .0
45281456484568 -.0325568410569043 -.00192240734204309 .04494777080563025 -.03310
94382720985 -.002168495386099725 .04454228437458165 -.03368102508521535 -.002170
55980384967 .0441116600142082 -.03421180983757785 -.001937203396762625 .04370128
221960325 -.0345457346410156 -.001631175118420285 .0434377971139483 41 1 19 H?-.
0345457346410156 -.001631175118420285 .0434377971139483 74 4 CI16 index_map_offs
et0 0 1 dCCZ20 11 2 0 0 256 230 0 0 0 0 0 0 0 0 0 0 0 0 0 0 0 0 0 0 1 0 
