**ABCDEFGHIJKLMNOPQRSTUVWXYZabcdefghijklmnopqrstuvwxyz**************************
**PARASOLID !"#$%&'()*+,-./:;<=>?@[\]^_`{|}~0123456789**************************
**PART1;
MC=AMD64;
MC_MODEL=Intel64 Family 6 Model 60 Stepping 3, GenuineIntel;
MC_ID=unknown;
OS=Windows_NT;
OS_RELEASE=unknown;
FRU=Parasolid Version 29.0, build 201,  4-17-2017;
APPL=SOLIDWORKS 2017-2017317;
SITE=;
USER=unknown;
FORMAT=text;
GUISE=transmit;
KEY=Part2B;
FILE=Part2B.x_t;
DATE=Fri Apr 20 12:05:44 2018;
**PART2;
SCH=SCH_2900201_28101;
USFLD_SIZE=0;
**PART3;
**END_OF_HEADER*****************************************************************
T51 : TRANSMIT FILE created by modeller version 290020123 SCH_2900201_28101_1300
6203 0 12 33 CCCCCCI4 mesh1006 0 I8 polyline1008 0 CCCCCCCDI5 owner1040 0 CCCCCC
I13 boundary_mesh1006 0 I17 boundary_polyline1008 0 CCCA16 index_map_offset0 0 1
 dA9 index_map82 0 A17 node_id_index_map82 0 A20 schema_embedding_map82 0 A5 chi
ld12 0 A14 lowest_node_id0 0 1 dZ1 550 0 2 0 0 0 0 0 0 1e3 1e-8 0 3 0 1 0 1 1 4
 5 6 7 0 0 8 9 10 0 0 0 0 0 0 70 11 CI9 list_type0 0 1 uI10 notransmit0 0 1 lCCC
DCCDI12 finger_index0 0 1 dI12 finger_block1012 0 CZ2 0 4 T1 0 0 2 20 1 11 11 13
 255 4 174 0 1 0 12 0 0 13 0 50 255 5 165 0 12 14 0 0 +.01281723885090502 0 -.05
69189448502004 0 0 -1 -1 0 0 32 255 6 373 0 15 16 0 0 +-.0167572237161573 .005 -
.0529513590594378 -.658257137852581 0 -.752793159152053 -.752793159152053 0 .658
257137852581 .00379790792418248 .0025 29 255 7 126 0 17 18 0 .01281723885090502
 .01 -.0569189448502004 19 8 CCCCCCCA5 owner12 0 Z8 52 0 1 13 0 19 V0 16 255 9 1
34 0 ?20 0 21 22 0 0 1 18 255 10 49 0 23 0 24 25 ?1 17 255 23 0 26 27 28 10 20 9
 0 29 -18 24 46 0 30 10 31 32 ?1 29 25 51 0 10 32 33 .01281723885090502 0 -.0569
189448502004 29 32 48 0 24 34 25 .0313959204682994 0 -.04019074741713845 29 33 1
33 0 35 25 36 .00281723885090503 .01 -.0569189448502004 18 35 116 0 37 38 39 33
 ?1 29 36 131 0 38 33 40 -.00218276114909495 .01 -.0489513590594378 18 38 114 0
 41 42 35 36 ?1 29 40 130 0 42 36 43 -.00218276114909497 .01 -.0569513590594378
 18 42 113 0 44 45 38 40 ?1 29 43 129 0 45 40 46 -.01218276114909496 .01 -.05695
13590594378 18 45 112 0 47 48 42 43 ?1 29 46 128 0 48 43 18 -.0310025901278962 .
01 -.04049493061312335 18 48 111 0 49 50 45 46 ?1 29 18 127 0 50 46 7 .031395920
4682994 .01 -.04019074741713845 18 50 110 0 51 17 48 18 ?1 17 51 0 52 53 54 50 3
0 21 0 55 +18 17 109 0 20 56 50 7 ?1 17 20 0 57 58 59 17 23 9 0 28 +18 56 28 0 6
0 61 17 62 ?1 17 60 0 63 64 65 56 37 66 0 67 -18 61 37 0 68 69 56 70 ?1 29 62 30
 0 56 71 70 .00281723885090503 0 -.0569189448502004 29 71 274 0 39 72 62 -.00218
276114909496 0 -.0489513590594378 29 70 39 0 61 62 73 -.00218276114909497 0 -.05
69513590594378 29 73 42 0 69 70 34 -.01218276114909496 0 -.0569513590594378 18 6
9 40 0 74 31 61 73 ?1 29 34 45 0 31 73 32 -.0310025901278962 0 -.040494930613123
35 18 31 43 0 75 24 69 34 ?1 17 75 0 52 54 53 31 49 76 0 77 -15 255 52 144 0 53
 78 0 17 54 0 52 51 75 24 77 79 0 80 +17 53 0 52 75 51 48 55 81 0 82 -17 49 0 83
 84 85 48 75 76 0 53 +16 76 136 0 ?49 21 86 87 0 0 1 17 77 0 88 89 80 31 54 79 0
 85 -15 88 3 0 90 91 0 17 89 0 88 92 77 69 85 93 0 94 -17 80 0 88 77 29 24 59 95
 0 0 -16 79 22 0 ?54 95 93 96 0 0 1 17 85 0 83 49 74 31 89 93 0 0 +15 83 146 0 8
4 97 0 17 74 0 83 85 84 69 47 86 0 89 -16 93 19 0 ?85 79 98 99 0 0 1 16 98 16 0
 ?94 93 100 101 0 0 1 30 255 99 20 0 93 101 96 0 +-.01218276114909496 0 -.056951
3590594378 -.752793159152053 0 .658257137852581 30 101 17 0 98 102 99 0 +-.00218
276114909497 0 -.0569513590594378 -1 0 0 31 255 96 23 0 79 99 103 0 +0 0 0 0 1 0
 0 0 1 .051 30 103 26 0 95 96 104 0 +.03139592046829935 0 -.0401907474171385 -.7
43147264695769 0 -.669127897322475 16 95 25 0 ?59 66 79 103 0 0 1 30 104 125 0 1
05 103 106 0 +.01281723885090502 .01 -.0569189448502004 -1 0 0 16 105 105 0 ?107
 108 109 104 0 0 1 30 106 124 0 108 104 110 0 +.00281723885090503 .01 -.05691894
48502004 1084202172485502e-31 0 1 16 108 101 0 ?111 112 105 106 0 0 1 30 110 122
 0 112 106 113 0 +-.00218276114909496 .01 -.0489513590594378 -146367293285543e-2
9 0 -1 16 112 93 0 ?114 115 108 110 0 0 1 30 113 121 0 115 110 116 0 +-.00218276
114909497 .01 -.0569513590594378 -1 0 0 16 115 89 0 ?117 118 112 113 0 0 1 30 11
6 120 0 118 113 119 0 +-.01218276114909496 .01 -.0569513590594378 -.752793159152
053 0 .658257137852581 16 118 85 0 ?82 81 115 116 0 0 1 31 119 119 0 81 116 120
 0 +0 .01 0 0 1 0 0 0 1 .051 16 81 81 0 ?55 121 118 119 0 0 1 30 120 118 0 121 1
19 22 0 +.03139592046829935 .01 -.0401907474171385 -.743147264695769 0 -.6691278
97322475 16 121 77 0 ?122 123 81 120 0 0 1 30 22 166 0 9 120 124 0 +.01281723885
090502 0 -.0569189448502004 0 1 0 30 124 167 0 21 22 87 0 +.0313959204682994 0 -
.04019074741713845 0 1 0 16 21 135 0 ?51 9 76 124 0 0 1 30 87 168 0 76 124 125 0
 +-.0310025901278962 0 -.04049493061312335 0 1 0 30 125 169 0 86 87 126 0 +-.012
18276114909496 0 -.0569513590594378 0 1 0 16 86 137 0 ?47 76 127 125 0 0 1 30 12
6 170 0 127 125 128 0 +-.00218276114909497 0 -.0569513590594378 0 1 0 16 127 138
 0 ?44 86 129 126 0 0 1 30 128 171 0 129 126 130 0 +-.00218276114909495 0 -.0489
513590594378 0 1 0 16 129 139 0 ?41 127 131 128 0 0 1 30 130 172 0 131 128 132 0
 +.00281723885090503 0 -.0489189448502004 0 1 0 16 131 140 0 ?133 129 66 130 0 0
 1 30 132 173 0 66 130 16 0 +.00281723885090503 0 -.0569189448502004 0 1 0 16 66
 141 0 ?37 131 95 132 0 0 1 31 16 356 0 134 132 6 0 +.00281723885090503 .005 -.0
529513590594378 -1 0 1084202172485502e-31 1084202172485502e-31 0 1 .0015 16 134
 387 0 ?135 136 137 16 0 0 1 17 135 0 138 135 135 0 139 134 0 0 +16 136 390 0 ?1
40 141 134 142 0 0 1 16 137 392 0 ?143 134 144 145 0 0 1 17 143 0 146 143 143 0
 147 137 0 0 +16 144 393 0 ?148 137 0 149 0 0 1 31 145 447 0 137 149 142 0 +-.00
718276114909497 .005 -.0529513590594378 -1 0 16306400674182e-29 16306400674182e-
29 0 1 .0015 31 149 448 0 144 0 145 0 +-.00718276114909497 .005 -.05295135905943
78 -1 0 16306400674182e-29 16306400674182e-29 0 1 .0025 32 142 445 0 136 145 150
 0 +.01722372158708975 .005 -.0529513590594378 .669127897322475 0 -.743147264695
769 -.743147264695769 0 -.669127897322475 .0022417239006209 .0015 31 150 444 0 1
41 142 151 0 +-.002182761149094965 .005 -.0529513590594378 1 0 -146367293285543e
-29 -146367293285543e-29 0 -1 .0015 16 141 388 0 ?152 15 136 150 0 0 1 31 151 27
3 0 153 150 154 0 +0 0 0 0 -1 0 0 0 -1 .049 16 153 247 0 ?155 109 15 151 0 0 1 3
1 154 272 0 109 151 156 0 +0 .01 0 0 -1 0 0 0 -1 .049 16 109 246 0 ?157 105 153
 154 0 0 1 30 156 5 0 123 154 158 0 +.01281723885090502 0 -.0569189448502004 -1
 0 0 16 123 4 0 ?27 159 121 156 0 0 1 30 158 8 0 159 156 102 0 +.002817238850905
03 0 -.0569189448502004 1084202172485502e-31 0 1 16 159 7 0 ?64 100 123 158 0 0
 1 30 102 14 0 100 158 101 0 +-.00218276114909496 0 -.0489513590594378 -14636729
3285543e-29 0 -1 16 100 13 0 ?160 98 159 102 0 0 1 17 160 0 161 44 162 61 90 100
 0 0 +15 161 150 0 163 164 0 17 44 0 161 163 160 42 68 127 0 165 +17 162 0 161 1
60 163 39 41 129 0 90 -17 90 0 88 166 92 39 160 100 0 0 -17 166 0 88 67 90 167 1
55 153 0 64 -17 92 0 88 90 89 61 94 98 0 160 -18 39 251 0 155 35 167 71 ?1 17 15
5 0 168 41 169 39 166 153 0 162 +18 167 250 0 169 39 170 72 ?1 17 169 0 168 155
 171 167 133 131 0 166 -18 170 252 0 171 167 0 172 ?1 29 72 275 0 167 172 71 .00
281723885090503 0 -.0489189448502004 29 172 277 0 170 0 72 .00281723885090503 .0
1 -.0489189448502004 17 171 0 168 169 41 170 157 109 0 133 -15 168 258 0 41 173
 0 17 41 0 168 171 155 38 162 129 0 157 +17 157 0 174 114 111 38 171 109 0 163 +
17 133 0 63 65 64 170 169 131 0 111 +15 63 154 0 65 175 0 17 65 0 63 60 133 35 1
11 108 0 107 -17 64 0 63 133 60 167 67 159 0 0 +17 111 0 174 157 107 170 65 108
 0 0 +15 174 232 0 157 176 0 17 107 0 174 111 122 35 28 105 0 0 +17 122 0 174 10
7 55 17 58 121 0 0 +17 28 0 26 23 37 17 107 105 0 122 -15 26 156 0 28 12 0 17 37
 0 26 28 27 35 60 66 0 65 +17 27 0 26 37 23 56 29 123 0 0 +17 29 0 88 80 67 10 2
7 123 0 59 -17 67 0 88 29 166 56 64 159 0 27 -17 59 0 57 20 30 10 80 95 0 0 +15
 57 142 0 58 177 0 17 30 0 57 59 58 24 51 21 0 54 -17 58 0 57 30 20 50 122 121 0
 0 -14 255 177 143 178 ?78 12 179 4 180 +0 0 78 12 19 81 255 1 178 537 181 177 1
82 0 0 183 184 14 78 145 183 ?97 177 52 4 185 +0 0 97 177 19 14 12 157 186 ?177
 0 26 4 5 +0 0 177 0 19 15 179 363 0 187 177 57 50 180 158 0 177 188 185 0 +.031
39592046829935 0 -.0401907474171385 .669127897322475 0 -.743147264695769 -.74314
7264695769 0 -.669127897322475 13 19 53 0 0 0 0 0 0 8 12 50 188 117 0 176 189 18
0 0 +0 .01 0 0 1 0 0 0 1 51 255 185 159 0 78 180 190 0 +0 0 0 0 1 0 .051 0 0 1 5
0 190 160 0 97 185 191 0 +-.01218276114909496 0 -.0569513590594378 -.65825713785
2581 0 -.752793159152053 -.752793159152053 0 .658257137852581 14 97 147 192 ?193
 78 194 4 190 +0 0 193 78 19 50 191 161 0 193 190 195 0 +-.00218276114909497 0 -
.0569513590594378 0 0 -1 -1 0 0 14 193 149 196 ?164 97 197 4 191 +0 0 164 97 19
 50 195 162 0 164 191 14 0 +-.00218276114909496 0 -.0489513590594378 1 0 -146367
293285543e-29 -146367293285543e-29 0 -1 14 164 151 198 ?175 193 199 4 195 +0 0 1
75 193 19 50 14 164 0 175 195 5 0 +.00281723885090503 0 -.0569189448502004 -1 0
 1084202172485502e-31 1084202172485502e-31 0 1 14 175 155 200 ?91 164 201 4 14 +
0 0 91 164 19 81 1 200 543 181 175 202 0 198 203 204 14 91 1 203 ?176 175 88 4 1
89 -0 0 176 175 19 15 201 355 0 139 175 63 17 139 0 201 139 139 0 135 134 0 0 -8
1 1 203 544 181 91 205 0 200 206 207 14 176 75 206 ?173 91 174 4 188 +0 0 173 91
 19 50 189 2 0 91 208 188 0 +0 0 0 0 1 0 0 0 1 51 208 267 0 173 209 189 0 +0 .01
 0 0 -1 0 .049 0 0 -1 14 173 256 210 ?211 176 168 4 208 -0 0 211 176 19 51 209 4
41 0 211 212 208 0 +-.01961626282057125 .005 -.0529513590594378 -1 0 16306400674
182e-29 .0015 16306400674182e-29 0 1 14 211 422 213 ?214 173 215 4 209 -214 214
 214 173 19 50 212 442 0 216 217 209 0 +-.00718276114909497 .0065 -.052951359059
4378 1 0 -16306400674182e-29 -16306400674182e-29 0 -1 14 216 427 218 ?219 214 22
0 4 212 -0 0 219 214 19 51 217 443 0 219 0 212 0 +-.01961626282057125 .005 -.052
9513590594378 -1 0 16306400674182e-29 .0025 16306400674182e-29 0 1 14 219 432 22
1 ?0 216 222 4 217 -0 0 0 216 19 81 1 221 549 181 219 223 0 218 224 225 15 222 4
35 0 226 219 227 17 226 0 222 226 226 0 228 15 0 0 +15 227 436 0 229 219 0 17 22
9 0 227 229 229 0 148 144 0 0 -17 148 0 230 148 148 0 229 144 0 0 +15 230 431 0
 148 216 0 17 228 0 194 228 228 0 226 15 0 0 -16 15 386 0 ?226 153 141 6 0 0 1 1
5 194 372 0 228 97 83 80 255 1 181 231 232 9000 1 1 1 1 1 1 1 1 0 FFFFTFTFFFFFFF
1 81 1 223 506 233 219 0 221 234 0 235 81 1 218 548 181 216 234 0 213 221 236 81
 1 224 550 181 214 237 0 221 0 238 82 255 1 225 -294584148 14 214 409 224 ?216 2
11 239 4 209 -211 211 216 211 19 81 1 237 504 233 214 0 224 240 234 241 82 1 238
 -286850900 80 1 233 0 242 8001 0 0 0 0 3 5 0 0 0 FFFFTFTFFFFFFF2 81 1 240 503 2
33 211 0 213 243 237 244 81 1 234 505 233 216 0 218 237 223 245 83 255 3 241 .79
2156862745098 .819607843137255 .933333333333333 83 3 245 .792156862745098 .81960
7843137255 .933333333333333 81 1 213 547 181 211 240 0 210 218 246 81 1 243 502
 233 173 0 210 247 240 248 83 3 244 .792156862745098 .819607843137255 .933333333
333333 81 1 210 546 181 173 243 0 206 213 249 81 1 247 501 233 176 0 206 205 243
 250 83 3 248 .792156862745098 .819607843137255 .933333333333333 81 1 206 545 18
1 176 247 0 203 210 251 81 1 205 500 233 91 0 203 202 247 252 83 3 250 .79215686
2745098 .819607843137255 .933333333333333 81 1 202 499 233 175 0 200 253 205 254
 83 3 252 .792156862745098 .819607843137255 .933333333333333 81 1 253 498 233 16
4 0 198 255 202 256 83 3 254 .792156862745098 .819607843137255 .933333333333333
 81 1 198 542 181 164 253 0 196 200 257 81 1 255 497 233 193 0 196 258 253 259 8
3 3 256 .792156862745098 .819607843137255 .933333333333333 81 1 196 541 181 193
 255 0 192 198 260 81 1 258 496 233 97 0 192 261 255 262 83 3 259 .7921568627450
98 .819607843137255 .933333333333333 81 1 192 540 181 97 258 0 186 196 263 81 1
 261 495 233 78 0 183 182 258 264 83 3 262 .792156862745098 .819607843137255 .93
3333333333333 81 1 183 538 181 78 261 0 178 186 265 81 1 182 494 233 177 0 178 2
66 261 267 83 3 264 .792156862745098 .819607843137255 .933333333333333 81 1 266
 493 233 12 0 186 0 182 268 83 3 267 .792156862745098 .819607843137255 .93333333
3333333 81 1 186 539 181 12 266 0 183 192 269 83 3 268 .792156862745098 .8196078
43137255 .933333333333333 82 1 269 -360054617 82 1 265 -360841049 82 1 263 -3607
09972 82 1 260 -360578905 82 1 257 -360447828 82 1 251 -362676055 82 1 249 -3369
85943 82 1 246 -293404500 79 255 15 242 SDL/TYSA_COLOUR15 239 412 0 152 214 146
 17 152 0 239 152 152 0 270 141 0 0 +15 146 413 0 143 214 0 17 270 0 199 270 270
 0 152 141 0 0 -15 199 380 0 270 164 161 82 1 236 -293994324 83 3 235 .792156862
745098 .819607843137255 .933333333333333 79 14 232 SWEntUnchanged15 220 430 0 14
7 216 230 17 147 0 220 147 147 0 143 137 0 0 -15 215 425 0 140 211 138 17 140 0
 215 140 140 0 187 136 0 0 +15 138 426 0 135 211 0 17 187 0 179 187 187 0 140 13
6 0 0 -82 1 207 -373030743 82 1 204 -360185684 15 197 148 0 165 193 0 17 165 0 1
97 68 47 42 117 115 0 114 -17 68 0 197 94 165 61 44 127 0 92 -17 47 0 197 165 94
 45 74 86 0 84 +17 117 0 174 82 114 45 165 115 0 0 +17 114 0 174 117 157 42 163
 112 0 0 +17 163 0 161 162 44 38 114 112 0 0 -17 82 0 174 55 117 48 84 118 0 0 +
17 55 0 174 122 82 50 53 81 0 58 +17 84 0 83 74 49 45 82 118 0 117 -17 94 0 197
 47 68 69 92 98 0 0 +82 1 184 -360972116 19 13 175 0 1 0 8 4 S0 74 4 CI16 index_
map_offset0 0 1 dCCZ20 11 2 0 0 224 223 0 0 0 0 0 0 0 0 0 0 0 0 0 0 0 0 0 0 1 0
 
