**ABCDEFGHIJKLMNOPQRSTUVWXYZabcdefghijklmnopqrstuvwxyz**************************
**PARASOLID !"#$%&'()*+,-./:;<=>?@[\]^_`{|}~0123456789**************************
**PART1;
MC=AMD64;
MC_MODEL=Intel64 Family 6 Model 60 Stepping 3, GenuineIntel;
MC_ID=unknown;
OS=Windows_NT;
OS_RELEASE=unknown;
FRU=Parasolid Version 29.0, build 201,  4-17-2017;
APPL=SOLIDWORKS 2017-2017317;
SITE=;
USER=unknown;
FORMAT=text;
GUISE=transmit;
KEY=Part1;
FILE=Part1.x_t;
DATE=Fri Apr 20 12:03:10 2018;
**PART2;
SCH=SCH_2900201_28101;
USFLD_SIZE=0;
**PART3;
**END_OF_HEADER*****************************************************************
T51 : TRANSMIT FILE created by modeller version 290020123 SCH_2900201_28101_1300
6203 0 12 33 CCCCCCI4 mesh1006 0 I8 polyline1008 0 CCCCCCCDI5 owner1040 0 CCCCCC
I13 boundary_mesh1006 0 I17 boundary_polyline1008 0 CCCA16 index_map_offset0 0 1
 dA9 index_map82 0 A17 node_id_index_map82 0 A20 schema_embedding_map82 0 A5 chi
ld12 0 A14 lowest_node_id0 0 1 dZ1 375 0 2 0 0 0 0 0 0 1e3 1e-8 0 3 0 1 0 1 1 4
 5 6 0 0 0 7 8 0 0 0 0 0 0 0 70 11 CI9 list_type0 0 1 uI10 notransmit0 0 1 lCCCD
CCDI12 finger_index0 0 1 dI12 finger_block1012 0 CZ2 0 4 T1 0 0 2 20 1 9 9 13 25
5 4 89 0 1 0 10 0 0 11 0 50 255 5 178 0 10 12 0 0 +.048 .01138119648079914 0 131
705648573937e-30 -1 0 1 131705648573937e-30 0 31 255 6 192 0 8 13 0 0 +395116945
721809e-33 .01138119648079912 0 -131705648573937e-30 1 0 -1 -131705648573937e-30
 0 .048 19 8 CCCCCCCA5 owner12 0 Z7 93 0 1 11 0 14 V0 16 255 8 157 0 ?15 0 16 6
 0 0 1 17 255 15 0 17 15 15 0 18 8 0 0 +16 16 152 0 ?19 8 20 13 0 0 1 17 19 0 21
 19 19 0 22 16 0 0 +16 20 147 0 ?23 16 24 25 0 0 1 31 13 191 0 16 25 6 0 +329264
1214348405e-34 .01188119648079912 0 -131705648573937e-30 1 0 -1 -131705648573937
e-30 0 .048 31 25 190 0 20 26 13 0 +658528242869684e-34 .01388119648079912 0 -13
1705648573937e-30 1 0 -1 -131705648573937e-30 0 .046 31 26 189 0 24 27 25 0 +0 .
01438119648079912 0 -131705648573937e-30 1 0 -1 -131705648573937e-30 0 .046 16 2
4 142 0 ?28 20 29 26 0 0 1 31 27 188 0 29 30 26 0 +770371977754894e-48 .01438119
648079912 0 -131705648573937e-30 1 0 -1 -131705648573937e-30 0 .044 16 29 137 0
 ?31 24 32 27 0 0 1 31 30 187 0 32 33 27 0 +4082875105792045e-33 -.0166188035192
0085 0 -131705648573937e-30 1 0 -1 -131705648573937e-30 0 .044 16 32 132 0 ?34 2
9 35 30 0 0 1 31 33 186 0 35 36 30 0 +4082875105792045e-33 -.01661880351920085 0
 -131705648573937e-30 1 0 -1 -131705648573937e-30 0 .052 16 35 127 0 ?37 32 38 3
3 0 0 1 31 36 185 0 38 39 33 0 +342434686292236e-32 -.01161880351920086 0 -13170
5648573937e-30 1 0 -1 -131705648573937e-30 0 .052 16 38 122 0 ?40 35 41 36 0 0 1
 31 39 184 0 41 42 36 0 +342434686292236e-32 -.01161880351920086 0 -131705648573
937e-30 1 0 -1 -131705648573937e-30 0 .05 16 41 117 0 ?43 38 44 39 0 0 1 31 42 1
83 0 44 45 39 0 +1975584728609055e-33 -.000618803519200871 0 -131705648573937e-3
0 1 0 -1 -131705648573937e-30 0 .05 16 44 112 0 ?46 41 47 42 0 0 1 31 45 182 0 4
7 48 42 0 +1975584728609055e-33 -.000618803519200871 0 -131705648573937e-30 1 0
 -1 -131705648573937e-30 0 .052 16 47 107 0 ?49 44 50 45 0 0 1 31 48 181 0 50 51
 45 0 +1317056485739368e-33 .004381196480799125 0 -131705648573937e-30 1 0 -1 -1
31705648573937e-30 0 .052 16 50 102 0 ?52 47 53 48 0 0 1 31 51 180 0 53 54 48 0
 +1317056485739368e-33 .004381196480799125 0 -131705648573937e-30 1 0 -1 -131705
648573937e-30 0 .046 16 53 97 0 ?55 50 56 51 0 0 1 31 54 179 0 56 0 51 0 +395116
9457218105e-34 .01138119648079912 0 -131705648573937e-30 1 0 -1 -131705648573937
e-30 0 .046 16 56 95 0 ?57 53 0 54 0 0 1 17 57 0 58 57 57 0 59 56 0 0 +15 255 58
 262 0 57 10 60 17 59 0 61 59 59 0 57 56 0 0 -15 61 99 0 59 62 0 14 255 62 100 6
3 ?0 64 65 4 66 +0 0 0 64 14 81 255 1 63 362 67 62 68 0 0 69 70 14 64 105 69 ?62
 71 72 4 73 +0 0 62 71 14 15 65 261 0 55 62 61 51 255 66 165 0 62 0 73 0 +408287
5105792045e-33 -.0166188035192009 0 -131705648573937e-30 1 0 .046 -1 -1317056485
73937e-30 0 13 14 92 0 0 0 0 0 0 7 10 14 10 163 74 ?75 0 58 4 5 +0 0 75 0 14 81
 1 74 364 67 10 76 0 69 77 78 14 75 160 77 ?79 10 17 4 12 +0 0 79 10 14 81 1 77
 365 67 75 80 0 74 81 82 14 79 155 81 ?83 75 21 4 84 +0 0 83 75 14 15 17 249 0 1
5 75 85 51 12 177 0 75 84 5 0 +4082875105792045e-33 -.0166188035192009 0 -131705
648573937e-30 1 0 .048 -1 -131705648573937e-30 0 52 255 84 176 0 79 86 12 0 +658
528242869684e-34 .01388119648079912 0 131705648573937e-30 -1 0 .046 .70710678118
655 .707106781186545 1 131705648573937e-30 0 51 86 175 0 83 87 84 0 +40828751057
92045e-33 -.0166188035192009 0 -131705648573937e-30 1 0 .046 -1 -131705648573937
e-30 0 14 83 150 88 ?89 79 90 4 86 +0 0 89 79 14 50 87 174 0 89 91 86 0 +.044 .0
1438119648079912 0 -131705648573937e-30 1 0 -1 -131705648573937e-30 0 14 89 145
 92 ?93 83 94 4 87 +0 0 93 83 14 51 91 173 0 93 95 87 0 -4082875105792045e-33 -.
0166188035192009 0 -131705648573937e-30 1 0 .044 -1 -131705648573937e-30 0 14 93
 140 96 ?97 89 98 4 91 +0 0 97 89 14 50 95 172 0 97 99 91 0 +.052 -.016618803519
20085 0 131705648573937e-30 -1 0 1 131705648573937e-30 0 14 97 135 100 ?101 93 1
02 4 95 +0 0 101 93 14 51 99 171 0 101 103 95 0 +4082875105792045e-33 -.01661880
35192009 0 -131705648573937e-30 1 0 .052 -1 -131705648573937e-30 0 14 101 130 10
4 ?105 97 106 4 99 +0 0 105 97 14 50 103 170 0 105 107 99 0 +.05 -.0116188035192
0086 0 -131705648573937e-30 1 0 -1 -131705648573937e-30 0 14 105 125 108 ?109 10
1 110 4 103 +0 0 109 101 14 51 107 169 0 109 111 103 0 +4082875105792045e-33 -.0
166188035192009 0 -131705648573937e-30 1 0 .05 -1 -131705648573937e-30 0 14 109
 120 112 ?113 105 114 4 107 +0 0 113 105 14 50 111 168 0 113 115 107 0 +.052 -.0
00618803519200864 0 131705648573937e-30 -1 0 1 131705648573937e-30 0 14 113 115
 116 ?71 109 117 4 111 +0 0 71 109 14 51 115 167 0 71 73 111 0 +4082875105792045
e-33 -.0166188035192009 0 -131705648573937e-30 1 0 .052 -1 -131705648573937e-30
 0 14 71 110 118 ?64 113 119 4 115 +0 0 64 113 14 50 73 166 0 64 66 115 0 +.046
 .004381196480799135 0 -131705648573937e-30 1 0 -1 -131705648573937e-30 0 81 1 1
18 375 67 71 120 0 116 0 121 15 119 259 0 49 71 122 17 49 0 119 49 49 0 123 47 0
 0 +15 122 109 0 124 71 0 17 124 0 122 124 124 0 52 50 0 0 -17 52 0 72 52 52 0 1
24 50 0 0 +15 72 260 0 52 64 125 15 125 104 0 126 64 0 17 126 0 125 126 126 0 55
 53 0 0 -17 55 0 65 55 55 0 126 53 0 0 +17 123 0 127 123 123 0 49 47 0 0 -15 127
 114 0 123 113 0 80 255 1 67 128 129 9000 1 1 1 1 1 1 1 1 0 FFFFTFTFFFFFFF1 81 1
 120 329 130 71 0 118 131 132 133 81 1 116 374 67 113 131 0 112 118 134 82 255 1
 121 -765329247 81 1 131 328 130 113 0 116 135 120 136 81 1 112 373 67 109 135 0
 108 116 137 82 1 134 -764739423 81 1 135 327 130 109 0 112 138 131 139 81 1 108
 372 67 105 138 0 104 112 140 82 1 137 -764149599 81 1 138 326 130 105 0 108 141
 135 142 81 1 104 371 67 101 141 0 100 108 143 82 1 140 -763559775 81 1 141 325
 130 101 0 104 144 138 145 81 1 100 370 67 97 144 0 96 104 146 82 1 143 -7629699
51 81 1 144 324 130 97 0 100 147 141 148 81 1 96 369 67 93 147 0 92 100 149 82 1
 146 -762380127 81 1 147 323 130 93 0 96 150 144 151 81 1 92 368 67 89 150 0 88
 96 152 82 1 149 -761790303 81 1 150 322 130 89 0 92 153 147 154 81 1 88 367 67
 83 153 0 81 92 155 82 1 152 -761200479 81 1 153 321 130 83 0 88 156 150 157 81
 1 81 366 67 79 156 0 77 88 158 82 1 155 -760610655 81 1 156 320 130 79 0 81 80
 153 159 82 1 158 -760020831 80 1 130 0 160 8001 0 0 0 0 3 5 0 0 0 FFFFTFTFFFFFF
F2 81 1 80 319 130 75 0 77 76 156 161 83 255 3 159 .792156862745098 .81960784313
7255 .933333333333333 81 1 76 318 130 10 0 74 0 80 162 83 3 161 .792156862745098
 .819607843137255 .933333333333333 83 3 162 .792156862745098 .819607843137255 .9
33333333333333 79 255 15 160 SDL/TYSA_COLOUR83 3 157 .792156862745098 .819607843
137255 .933333333333333 83 3 154 .792156862745098 .819607843137255 .933333333333
333 83 3 151 .792156862745098 .819607843137255 .933333333333333 83 3 148 .792156
862745098 .819607843137255 .933333333333333 83 3 145 .792156862745098 .819607843
137255 .933333333333333 83 3 142 .792156862745098 .819607843137255 .933333333333
333 83 3 139 .792156862745098 .819607843137255 .933333333333333 83 3 136 .792156
862745098 .819607843137255 .933333333333333 81 1 132 330 130 64 0 69 120 68 163
 83 3 133 .792156862745098 .819607843137255 .933333333333333 81 1 69 363 67 64 1
32 0 63 74 164 81 1 68 331 130 62 0 63 132 0 165 83 3 163 .792156862745098 .8196
07843137255 .933333333333333 83 3 165 .792156862745098 .819607843137255 .9333333
33333333 82 1 164 -765919071 79 14 129 SWEntUnchanged15 117 258 0 46 113 127 17
 46 0 117 46 46 0 166 44 0 0 +17 166 0 167 166 166 0 46 44 0 0 -15 167 119 0 166
 109 0 15 114 257 0 43 109 167 17 43 0 114 43 43 0 168 41 0 0 +17 168 0 169 168
 168 0 43 41 0 0 -15 169 124 0 168 105 0 15 110 256 0 40 105 169 17 40 0 110 40
 40 0 170 38 0 0 +17 170 0 171 170 170 0 40 38 0 0 -15 171 129 0 170 101 0 15 10
6 255 0 37 101 171 17 37 0 106 37 37 0 172 35 0 0 +17 172 0 173 172 172 0 37 35
 0 0 -15 173 134 0 172 97 0 15 102 254 0 34 97 173 17 34 0 102 34 34 0 174 32 0
 0 +17 174 0 175 174 174 0 34 32 0 0 -15 175 139 0 174 93 0 15 98 253 0 31 93 17
5 17 31 0 98 31 31 0 176 29 0 0 +17 176 0 177 176 176 0 31 29 0 0 -15 177 144 0
 176 89 0 15 94 252 0 28 89 177 17 28 0 94 28 28 0 178 24 0 0 +17 178 0 179 178
 178 0 28 24 0 0 -15 179 149 0 178 83 0 15 90 251 0 23 83 179 17 23 0 90 23 23 0
 180 20 0 0 +17 180 0 181 180 180 0 23 20 0 0 -15 181 154 0 180 79 0 15 85 159 0
 22 75 0 17 22 0 85 22 22 0 19 16 0 0 -15 21 250 0 19 79 181 82 1 82 -759431007
 82 1 78 -759103327 82 1 70 -766508895 15 60 162 0 18 10 0 17 18 0 60 18 18 0 15
 8 0 0 -19 11 88 0 1 0 7 4 S0 74 4 CI16 index_map_offset0 0 1 dCCZ20 9 2 0 0 118
 68 0 0 0 0 0 0 0 0 0 0 0 0 0 0 0 0 0 0 1 0 
