**ABCDEFGHIJKLMNOPQRSTUVWXYZabcdefghijklmnopqrstuvwxyz**************************
**PARASOLID !"#$%&'()*+,-./:;<=>?@[\]^_`{|}~0123456789**************************
**PART1;
MC=AMD64;
MC_MODEL=Intel64 Family 6 Model 60 Stepping 3, GenuineIntel;
MC_ID=unknown;
OS=Windows_NT;
OS_RELEASE=unknown;
FRU=Parasolid Version 29.0, build 201,  4-17-2017;
APPL=SOLIDWORKS 2017-2017317;
SITE=;
USER=unknown;
FORMAT=text;
GUISE=transmit;
KEY=Part2;
FILE=Part2.x_t;
DATE=Fri Apr 20 12:02:52 2018;
**PART2;
SCH=SCH_2900201_28101;
USFLD_SIZE=0;
**PART3;
**END_OF_HEADER*****************************************************************
T51 : TRANSMIT FILE created by modeller version 290020123 SCH_2900201_28101_1300
6203 0 12 33 CCCCCCI4 mesh1006 0 I8 polyline1008 0 CCCCCCCDI5 owner1040 0 CCCCCC
I13 boundary_mesh1006 0 I17 boundary_polyline1008 0 CCCA16 index_map_offset0 0 1
 dA9 index_map82 0 A17 node_id_index_map82 0 A20 schema_embedding_map82 0 A5 chi
ld12 0 A14 lowest_node_id0 0 1 dZ1 2186 0 2 0 0 0 0 0 0 1e3 1e-8 0 3 0 1 0 1 1 4
 5 6 7 0 0 8 9 10 0 0 0 0 0 0 70 11 CI9 list_type0 0 1 uI10 notransmit0 0 1 lCCC
DCCDI12 finger_index0 0 1 dI12 finger_block1012 0 CZ2 0 4 T1 0 0 2 20 1 11 11 13
 255 4 127 0 1 0 12 0 0 13 0 50 255 5 252 0 14 15 0 0 +-153646936443661e-30 .031
 0 1414040061425976e-31 -1 0 1 1414040061425976e-31 0 38 255 6 1604 0 9 16 0 0 +
17 18 19 20 20 29 255 7 1124 0 10 21 0 -.0371572412738699 .006 -.033456530317942
45 19 8 CCCCCCCA5 owner12 0 Z8 131 0 1 13 0 22 V0 16 255 9 1602 0 ?23 0 24 6 0 0
 1 18 255 10 1122 0 25 0 26 7 ?1 17 255 25 0 27 28 29 10 30 31 0 32 -18 26 1119
 0 28 10 33 21 ?1 17 28 0 27 34 25 26 32 35 0 36 -18 33 1113 0 29 26 37 38 ?1 29
 21 1121 0 26 38 7 -.0475528258147577 .006 -.01545084971874685 29 38 1115 0 33 3
9 21 -.0371572412738699 -1219307667723952e-32 -.03345653031794245 29 39 997 0 37
 40 38 -.01039558454088794 .006 .0489073800366901 18 37 995 0 41 33 42 39 ?1 29
 40 994 0 42 43 39 .01039558454088794 .006 .0489073800366901 18 42 992 0 44 37 4
5 40 ?1 29 43 988 0 45 46 40 -.01039558454088794 -840887120418284e-32 .048907380
0366901 18 45 986 0 47 42 48 43 ?1 29 46 870 0 48 49 43 .0475528258147575 .006 -
.01545084971874755 18 48 868 0 50 45 51 46 ?1 29 49 867 0 51 52 46 .037157241273
8694 .006 -.033456530317943 18 51 865 0 53 48 54 49 ?1 29 52 861 0 54 55 49 .047
5528258147575 -214733830299386e-33 -.01545084971874755 18 54 859 0 56 51 57 52 ?
1 29 55 714 0 57 58 52 .0456507127821673 1339408757457076e-32 .0148328157299973
 18 57 712 0 59 54 60 55 ?1 29 58 555 0 60 61 55 -.045650712782167 .006 .0148328
1572999794 18 60 553 0 62 57 63 58 ?1 29 61 404 0 63 64 58 .00997976115925209 .0
06 -.0469510848352226 18 63 402 0 65 60 66 61 ?1 29 64 523 0 67 68 61 .009979761
1592521 2116767312396815e-33 -.0469510848352226 18 67 473 0 69 70 71 64 ?1 29 68
 524 0 71 72 64 .0103955845408876 2204965950413345e-33 -.0489073800366902 18 71
 475 0 73 67 74 68 ?1 29 72 525 0 74 75 68 -.0103955845408883 -2204965950413495e
-33 -.0489073800366901 18 74 477 0 76 71 77 72 ?1 29 75 526 0 77 78 72 -.0099797
6115925277 -2116767312396955e-33 -.0469510848352224 18 77 472 0 79 74 80 75 ?1 2
9 78 528 0 66 81 75 .0103955845408876 .006 -.0489073800366902 18 66 478 0 82 63
 83 78 ?1 29 81 529 0 83 84 78 -.0103955845408883 .006 -.0489073800366901 18 83
 474 0 85 66 70 81 ?1 29 84 530 0 70 86 81 -.00997976115925277 .006 -.0469510848
352224 18 70 476 0 87 83 67 84 ?1 29 86 678 0 88 89 84 -.0475528258147573 -10086
24011041174e-32 .01545084971874785 18 88 628 0 90 91 92 86 ?1 29 89 679 0 92 93
 86 -.03715724127386915 -788127415999827e-32 .03345653031794325 18 92 630 0 94 8
8 95 89 ?1 29 93 680 0 95 96 89 -.0356709516229144 -756602319359834e-32 .0321182
6910522555 18 95 632 0 97 92 98 93 ?1 29 96 681 0 98 99 93 -.045650712782167 -96
8279050599527e-32 .01483281572999794 18 98 626 0 100 95 101 96 ?1 29 99 682 0 80
 102 96 -.0475528258147573 .006 .01545084971874785 18 80 633 0 103 77 104 99 ?1
 29 102 683 0 104 105 99 -.03715724127386915 .006 .03345653031794325 18 104 627
 0 106 80 91 102 ?1 29 105 684 0 91 107 102 -.0356709516229144 .006 .03211826910
522555 18 91 629 0 108 104 88 105 ?1 29 107 834 0 109 110 105 .03567095162291485
 756602319359844e-32 .032118269105225 18 109 784 0 111 112 113 107 ?1 29 110 835
 0 113 114 107 .03715724127386965 788127415999838e-32 .03345653031794275 18 113
 786 0 115 109 116 110 ?1 29 114 836 0 116 117 110 .0475528258147576 10086240110
4118e-31 .0154508497187472 18 116 788 0 118 113 119 114 ?1 29 117 838 0 101 120
 114 .03567095162291485 .006 .032118269105225 18 101 782 0 121 98 122 117 ?1 29
 120 839 0 122 123 117 .03715724127386965 .006 .03345653031794275 18 122 789 0 1
24 101 125 120 ?1 29 123 840 0 125 126 120 .0475528258147576 .006 .0154508497187
472 18 125 785 0 127 122 112 123 ?1 29 126 841 0 112 128 123 .0456507127821673 .
006 .0148328157299973 18 112 787 0 129 125 109 126 ?1 29 128 960 0 130 131 126 .
0371572412738694 788127415999833e-32 -.033456530317943 18 130 911 0 132 133 134
 128 ?1 29 131 962 0 134 135 128 .0513570518799382 1089313931924474e-32 -.016686
9176962474 18 134 913 0 136 130 137 131 ?1 29 135 963 0 137 138 131 .04012982057
57791 851177609279822e-32 -.03613305274337855 18 137 909 0 139 134 140 135 ?1 29
 138 966 0 119 141 135 .0513570518799382 .006 -.0166869176962474 18 119 915 0 14
2 116 133 138 ?1 29 141 967 0 133 143 138 .0401298205757791 .006 -.0361330527433
7855 18 133 912 0 144 119 130 141 ?1 29 143 1087 0 145 146 141 .0103955845408879
6 220496595041342e-32 .0489073800366901 18 145 1038 0 147 148 149 143 ?1 29 146
 1089 0 149 150 143 -.01122723130415902 -23813632264465e-31 .0528199704396255 18
 149 1040 0 151 145 152 146 ?1 29 150 1090 0 152 153 146 .01122723130415902 2381
363226446505e-33 .0528199704396255 18 152 1036 0 154 149 155 150 ?1 29 153 1093
 0 140 156 150 -.01122723130415902 .006 .0528199704396255 18 140 1042 0 157 137
 148 153 ?1 29 156 1094 0 148 158 153 .01122723130415902 .006 .0528199704396255
 18 148 1039 0 159 140 145 156 ?1 29 158 1214 0 160 161 156 -.0475528258147577 -
100862401104118e-31 -.01545084971874685 18 160 1165 0 162 163 164 158 ?1 29 161
 1216 0 164 165 158 -.0401298205757796 -851177609279833e-32 -.036133052743378 18
 164 1167 0 166 160 167 161 ?1 29 165 1217 0 167 168 161 -.0513570518799385 -108
931393192448e-31 -.01668691769624665 18 167 1163 0 169 164 170 165 ?1 29 168 122
0 0 155 171 165 -.0401298205757796 .006 -.036133052743378 18 155 1169 0 172 152
 163 168 ?1 29 171 1221 0 163 173 168 -.0513570518799385 .006 -.0166869176962466
5 18 163 1166 0 174 155 160 171 ?1 29 173 1326 0 170 175 171 .0465322827189372 .
003 -.01974801025277625 18 170 1290 0 176 167 177 173 ?1 29 175 1393 0 177 178 1
73 .04037259898137785 .003 -.0304185879926683 18 177 1357 0 179 170 180 175 ?1 2
9 178 1460 0 180 181 175 -.0403684199125685 .003 -.030424133804291 18 180 1424 0
 182 177 183 178 ?1 29 181 1527 0 183 184 178 -.0465295694395921 .003 -.01975440
23383407 18 183 1491 0 185 180 186 181 ?1 29 184 1596 0 186 187 181 -.0061638628
0636846 .003 .0501721440570674 18 186 1560 0 188 183 189 184 ?1 29 187 1665 0 18
9 0 184 .00615697045821449 .003 .0501729903310091 18 189 1629 0 190 186 0 187 ?1
 17 190 0 191 190 190 189 0 0 0 0 ?15 255 191 1649 0 190 192 193 14 255 192 1646
 194 ?195 196 191 4 197 -0 0 195 196 22 15 193 1650 0 198 192 0 17 198 0 193 198
 198 0 199 200 0 0 +17 199 0 201 199 199 0 198 200 0 0 -16 200 1626 0 ?198 202 0
 203 0 0 1 16 202 1557 0 ?204 205 200 206 0 0 1 31 255 203 1661 0 200 0 206 0 +.
00621185960242071 .003 .0506202805235196 .1218011686749158 0 .992554520069011 .9
92554520069011 0 -.1218011686749158 .000749999999999987 31 206 1592 0 202 203 20
7 0 +-.00621881339558148 .003 .0506194267050797 -.121937517560421 0 .99253777853
0975 .992537778530975 0 .1219375175604212 .000749999999999987 31 207 1523 0 205
 206 208 0 +-.0469443786812729 .003 -.01993051204132135 -.920478013358291 0 -.39
0794353751399 -.390794353751399 0 .920478013358291 .000749999999999987 16 205 14
88 0 ?209 210 202 207 0 0 1 31 208 1456 0 210 207 211 0 +-.04072830275381255 .00
3 -.03069536373450855 -.798594171643384 0 -.601869877147227 -.601869877147227 0
 .798594171643384 .000749999999999987 16 210 1421 0 ?212 213 205 208 0 0 1 31 21
1 1389 0 213 208 214 0 +.04073251907885245 .003 -.0306897684821981 .798676844683
381 0 -.60176016631761 -.60176016631761 0 -.798676844683381 .000749999999999987
 16 213 1354 0 ?215 216 210 211 0 0 1 31 214 1322 0 216 211 217 0 +.046947116149
3943 .003 -.019924062970571 .92053168920381 0 -.3906679013837455 -.3906679013837
455 0 -.92053168920381 .000749999999999987 16 216 1287 0 ?218 219 213 214 0 0 1
 30 255 217 1213 0 220 214 221 0 +-1224190924005766e-33 .006 -1490987829894118e-
34 -.951056516295157 -201724802208237e-30 -.309016994374938 16 220 1134 0 ?222 2
23 224 217 0 0 1 31 221 1212 0 223 217 225 0 +-765312054186372e-33 .006 0 212106
0092138965e-31 -1 0 1 2121060092138965e-31 0 .054 16 223 1146 0 ?226 227 220 221
 0 0 1 30 225 1211 0 227 221 228 0 +-1045488953841614e-33 .006 -2522724135684055
e-34 -.7431448254774 -157625483199969e-30 -.669130606358852 16 227 1153 0 ?172 3
5 223 225 0 0 1 31 228 1210 0 35 225 229 0 +-765312054186373e-33 .006 0 21210600
92138965e-31 -1 0 1 2121060092138965e-31 0 .05 16 35 1150 0 ?32 230 227 228 0 0
 1 30 229 1209 0 219 228 231 0 +484451312776141e-34 962106720068253e-49 -1490987
829894118e-34 -.951056516295157 -201724802208237e-30 -.309016994374938 16 219 11
56 0 ?232 233 216 229 0 0 1 31 231 1208 0 233 229 234 0 +507324001097008e-33 0 0
 2121060092138965e-31 -1 0 1 2121060092138965e-31 0 .054 16 233 1159 0 ?235 224
 219 231 0 0 1 30 234 1207 0 224 231 236 0 +2271471014417655e-34 134114433737004
2e-49 -2522724135684055e-34 -.7431448254774 -157625483199969e-30 -.6691306063588
52 16 224 1142 0 ?237 220 233 234 0 0 1 30 236 1205 0 238 234 239 0 +-.047552825
8147577 .006 -.01545084971874685 2121060092138965e-31 -1 0 16 238 1141 0 ?34 240
 31 236 0 0 1 30 239 1204 0 31 236 241 0 +-.0371572412738699 .006 -.033456530317
94245 2121060092138965e-31 -1 0 16 31 1145 0 ?30 238 242 239 0 0 1 30 241 1203 0
 242 239 243 0 +-.0401298205757796 .006 -.036133052743378 2121060092138965e-31 -
1 0 16 242 1149 0 ?166 31 230 241 0 0 1 30 243 1202 0 230 241 244 0 +-.051357051
8799385 .006 -.01668691769624665 2121060092138965e-31 -1 0 16 230 1137 0 ?169 24
2 35 243 0 0 1 30 244 1086 0 245 243 246 0 +-787242286357254e-33 .006 -103173630
5789904e-34 .20791169081776 440993190082686e-31 .978147600733805 16 245 1007 0 ?
247 248 249 244 0 0 1 31 246 1085 0 248 244 250 0 +-765312054186371e-33 .006 0 2
121060092138965e-31 -1 0 1 2121060092138965e-31 0 .054 16 248 1019 0 ?251 252 24
5 246 0 0 1 30 250 1084 0 252 246 253 0 +-787242286357254e-33 .006 1031736305789
904e-34 -.2079116908177595 -4409931900826855e-32 .978147600733806 16 252 1026 0
 ?157 254 248 250 0 0 1 31 253 1083 0 254 250 255 0 +-765312054186372e-33 .006 0
 2121060092138965e-31 -1 0 1 2121060092138965e-31 0 .05 16 254 1023 0 ?256 257 2
52 253 0 0 1 30 255 1082 0 240 253 258 0 +485393768926125e-33 1888901037699e-46
 -1031736305789904e-34 .20791169081776 440993190082686e-31 .978147600733805 16 2
40 1029 0 ?259 260 238 255 0 0 1 31 258 1081 0 260 255 261 0 +507324001097008e-3
3 0 0 2121060092138965e-31 -1 0 1 2121060092138965e-31 0 .054 16 260 1032 0 ?262
 249 240 258 0 0 1 30 261 1080 0 249 258 263 0 +485393768926125e-33 188890103769
9e-46 1031736305789904e-34 -.2079116908177595 -4409931900826855e-32 .97814760073
3806 16 249 1015 0 ?264 245 260 261 0 0 1 30 263 1078 0 265 261 266 0 +.01039558
454088794 .006 .0489073800366901 2121060092138965e-31 -1 0 16 265 1014 0 ?267 26
8 269 263 0 0 1 30 266 1077 0 269 263 270 0 +-.01039558454088794 .006 .048907380
0366901 2121060092138965e-31 -1 0 16 269 1018 0 ?271 265 272 266 0 0 1 30 270 10
76 0 272 266 273 0 +-.01122723130415902 .006 .0528199704396255 2121060092138965e
-31 -1 0 16 272 1022 0 ?151 269 257 270 0 0 1 30 273 1075 0 257 270 274 0 +.0112
2723130415902 .006 .0528199704396255 2121060092138965e-31 -1 0 16 257 1010 0 ?15
4 272 254 273 0 0 1 30 274 959 0 275 273 276 0 +-1045488953841606e-33 .006 25227
24135684065e-34 .743144825477391 157625483199967e-30 -.669130606358862 16 275 88
0 0 ?277 278 279 274 0 0 1 31 276 958 0 278 274 280 0 +-765312054186371e-33 .006
 0 2121060092138965e-31 -1 0 1 2121060092138965e-31 0 .054 16 278 892 0 ?281 282
 275 276 0 0 1 30 280 957 0 282 276 283 0 +-122419092400576e-32 .006 14909878298
94176e-34 .951056516295152 201724802208236e-30 -.309016994374952 16 282 899 0 ?1
42 284 278 280 0 0 1 31 283 956 0 284 280 285 0 +-765312054186372e-33 .006 0 212
1060092138965e-31 -1 0 1 2121060092138965e-31 0 .05 16 284 896 0 ?286 287 282 28
3 0 0 1 30 285 955 0 268 283 288 0 +227147101441773e-33 1341144337370058e-49 252
2724135684065e-34 .743144825477391 157625483199967e-30 -.669130606358862 16 268
 902 0 ?289 290 265 285 0 0 1 31 288 954 0 290 285 291 0 +507324001097008e-33 0
 0 2121060092138965e-31 -1 0 1 2121060092138965e-31 0 .054 16 290 905 0 ?292 279
 268 288 0 0 1 30 291 953 0 279 288 293 0 +484451312776184e-34 962106720068262e-
49 1490987829894176e-34 .951056516295152 201724802208236e-30 -.309016994374952 1
6 279 888 0 ?294 275 290 291 0 0 1 30 293 951 0 295 291 296 0 +.0371572412738694
 .006 -.033456530317943 2121060092138965e-31 -1 0 16 295 887 0 ?297 298 299 293
 0 0 1 30 296 950 0 299 293 300 0 +.0475528258147575 .006 -.01545084971874755 21
21060092138965e-31 -1 0 16 299 891 0 ?301 295 302 296 0 0 1 30 300 949 0 302 296
 303 0 +.0513570518799382 .006 -.0166869176962474 2121060092138965e-31 -1 0 16 3
02 895 0 ?136 299 287 300 0 0 1 30 303 948 0 287 300 304 0 +.0401298205757791 .0
06 -.03613305274337855 2121060092138965e-31 -1 0 16 287 883 0 ?139 302 284 303 0
 0 1 31 304 833 0 305 303 306 0 --765312054186372e-33 .006 0 2121060092138965e-3
1 -1 0 1 2121060092138965e-31 0 .048 16 305 754 0 ?307 308 309 304 0 0 1 30 306
 832 0 308 304 310 0 +-1224190924005762e-33 .006 -1490987829894146e-34 .95105651
6295155 2017248022082365e-31 .309016994374945 16 308 766 0 ?311 312 305 306 0 0
 1 31 310 831 0 312 306 313 0 +-765312054186373e-33 .006 0 2121060092138965e-31
 -1 0 1 2121060092138965e-31 0 .05 16 312 762 0 ?314 315 308 310 0 0 1 30 313 83
0 0 315 310 316 0 +-104548895384161e-32 .006 -252272413568406e-33 .7431448254773
96 157625483199968e-30 .669130606358857 16 315 770 0 ?124 317 312 313 0 0 1 30 3
16 828 0 298 313 318 0 +484451312776162e-34 962106720068257e-49 -149098782989414
6e-34 .951056516295155 2017248022082365e-31 .309016994374945 16 298 776 0 ?118 3
09 295 316 0 0 1 30 318 826 0 309 316 319 0 +2271471014417695e-34 13411443373700
5e-48 -252272413568406e-33 .743144825477396 157625483199968e-30 .669130606358857
 16 309 758 0 ?320 305 298 318 0 0 1 30 319 825 0 321 318 322 0 +.03567095162291
485 .006 .032118269105225 2121060092138965e-31 -1 0 16 321 761 0 ?323 324 325 31
9 0 0 1 30 322 824 0 325 319 326 0 +.03715724127386965 .006 .03345653031794275 2
121060092138965e-31 -1 0 16 325 765 0 ?327 321 328 322 0 0 1 30 326 823 0 328 32
2 329 0 +.0475528258147576 .006 .0154508497187472 2121060092138965e-31 -1 0 16 3
28 769 0 ?330 325 317 326 0 0 1 30 329 822 0 317 326 331 0 +.0456507127821673 .0
06 .0148328157299973 2121060092138965e-31 -1 0 16 317 757 0 ?59 328 315 329 0 0
 1 30 331 677 0 332 329 333 0 +-122419092400576e-32 .006 1490987829894206e-34 -.
95105651629515 -2017248022082355e-31 .3090169943749585 16 332 614 0 ?103 334 335
 331 0 0 1 31 333 676 0 334 331 336 0 --765312054186372e-33 .006 0 2121060092138
965e-31 -1 0 1 2121060092138965e-31 0 .048 16 334 610 0 ?337 338 332 333 0 0 1 3
0 336 675 0 338 333 339 0 +-1045488953841602e-33 .006 252272413568407e-33 -.7431
44825477386 -157625483199966e-30 .669130606358868 16 338 606 0 ?340 341 334 336
 0 0 1 31 339 674 0 341 336 342 0 +-765312054186373e-33 .006 0 2121060092138965e
-31 -1 0 1 2121060092138965e-31 0 .05 16 341 602 0 ?343 344 338 339 0 0 1 30 342
 673 0 324 339 345 0 +484451312776204e-34 962106720068266e-49 1490987829894206e-
34 -.95105651629515 -2017248022082355e-31 .3090169943749585 16 324 598 0 ?346 33
5 321 342 0 0 1 30 345 671 0 335 342 347 0 +2271471014417765e-34 134114433737006
6e-49 252272413568407e-33 -.743144825477386 -157625483199966e-30 .66913060635886
8 16 335 620 0 ?94 332 324 345 0 0 1 30 347 669 0 348 345 349 0 +-.0475528258147
573 .006 .01545084971874785 2121060092138965e-31 -1 0 16 348 605 0 ?350 351 352
 347 0 0 1 30 349 668 0 352 347 353 0 +-.03715724127386915 .006 .033456530317943
25 2121060092138965e-31 -1 0 16 352 609 0 ?354 348 355 349 0 0 1 30 353 667 0 35
5 349 356 0 +-.0356709516229144 .006 .03211826910522555 2121060092138965e-31 -1
 0 16 355 613 0 ?97 352 344 353 0 0 1 30 356 666 0 344 353 357 0 +-.045650712782
167 .006 .01483281572999794 2121060092138965e-31 -1 0 16 344 601 0 ?358 355 341
 356 0 0 1 31 357 522 0 359 356 360 0 --765312054186372e-33 .006 0 2121060092138
965e-31 -1 0 1 2121060092138965e-31 0 .048 16 359 443 0 ?361 362 363 357 0 0 1 3
0 360 521 0 362 357 364 0 +-787242286357256e-33 .006 -1031736305789938e-34 -.207
911690817767 -4409931900827005e-32 -.978147600733804 16 362 455 0 ?365 366 359 3
60 0 0 1 31 364 520 0 366 360 367 0 +-765312054186373e-33 .006 0 212106009213896
5e-31 -1 0 1 2121060092138965e-31 0 .05 16 366 451 0 ?368 369 362 364 0 0 1 30 3
67 519 0 369 364 370 0 +-787242286357253e-33 .006 1031736305789872e-34 .20791169
0817753 440993190082671e-31 -.978147600733807 16 369 459 0 ?82 371 366 367 0 0 1
 30 370 517 0 351 367 372 0 +485393768926123e-33 1888901037698995e-49 -103173630
5789938e-34 -.207911690817767 -4409931900827005e-32 -.978147600733804 16 351 465
 0 ?76 363 348 370 0 0 1 30 372 515 0 363 370 373 0 +485393768926126e-33 1888901
037699e-46 1031736305789872e-34 .207911690817753 440993190082671e-31 -.978147600
733807 16 363 447 0 ?374 359 351 372 0 0 1 30 373 514 0 375 372 376 0 +.00997976
11592521 .006 -.0469510848352226 2121060092138965e-31 -1 0 16 375 450 0 ?377 378
 379 373 0 0 1 30 376 513 0 379 373 380 0 +.0103955845408876 .006 -.048907380036
6902 2121060092138965e-31 -1 0 16 379 454 0 ?381 375 382 376 0 0 1 30 380 512 0
 382 376 383 0 +-.0103955845408883 .006 -.0489073800366901 2121060092138965e-31
 -1 0 16 382 458 0 ?384 379 371 380 0 0 1 30 383 511 0 371 380 385 0 +-.00997976
115925277 .006 -.0469510848352224 2121060092138965e-31 -1 0 16 371 446 0 ?79 382
 369 383 0 0 1 31 385 253 0 378 383 386 0 +-3876200189323525e-33 .031 0 -1414040
061425976e-31 1 0 -1 -1414040061425976e-31 0 .042 16 378 134 0 ?387 388 375 385
 0 0 1 31 386 254 0 388 385 389 0 +-341100035758583e-33 .006 0 -1414040061425976
e-31 1 0 -1 -1414040061425976e-31 0 .042 16 388 136 0 ?390 391 378 386 0 0 1 31
 389 255 0 391 386 392 0 +-341100035758583e-33 .006 0 -1414040061425976e-31 1 0
 -1 -1414040061425976e-31 0 .043 16 391 142 0 ?393 394 388 389 0 0 1 31 392 256
 0 394 389 395 0 +-482504041901178e-33 .007 0 -1414040061425976e-31 1 0 -1 -1414
040061425976e-31 0 .044 16 394 148 0 ?396 397 391 392 0 0 1 31 395 257 0 397 392
 398 0 +-906716060328971e-33 .01 0 -1414040061425976e-31 1 0 -1 -141404006142597
6e-31 0 .044 16 397 154 0 ?399 400 394 395 0 0 1 31 398 258 0 400 395 401 0 +-90
6716060328971e-33 .01 0 -1414040061425976e-31 1 0 -1 -1414040061425976e-31 0 .04
8 16 400 160 0 ?402 403 397 398 0 0 1 31 401 259 0 404 398 405 0 +50732400109700
6e-33 693889390390723e-32 0 -1414040061425976e-31 1 0 -1 -1414040061425976e-31 0
 .048 16 404 400 0 ?406 407 408 401 403 408 1 31 405 260 0 409 401 410 0 +507324
001097008e-33 -693889390390723e-32 0 -1414040061425976e-31 1 0 -1 -1414040061425
976e-31 0 .05 16 409 419 0 ?29 411 412 405 412 413 1 31 410 261 0 411 405 414 0
 +-1189524072614164e-33 .012 0 -1414040061425976e-31 1 0 -1 -1414040061425976e-3
1 0 .05 16 411 178 0 ?415 416 409 410 0 0 1 31 414 262 0 416 410 417 0 +-1189524
072614164e-33 .012 0 -1414040061425976e-31 1 0 -1 -1414040061425976e-31 0 .054 1
6 416 184 0 ?418 419 411 414 0 0 1 31 417 263 0 419 414 420 0 +-147233208489936e
-32 .014 0 -1414040061425976e-31 1 0 -1 -1414040061425976e-31 0 .054 16 419 190
 0 ?421 422 416 417 0 0 1 31 420 264 0 422 417 423 0 +-147233208489936e-32 .014
 0 -1414040061425976e-31 1 0 -1 -1414040061425976e-31 0 .049 16 422 196 0 ?424 4
25 419 420 0 0 1 31 423 265 0 425 420 426 0 +-1896544103327155e-33 .017 0 -14140
40061425976e-31 1 0 -1 -1414040061425976e-31 0 .049 16 425 202 0 ?427 428 422 42
3 0 0 1 31 426 266 0 428 423 429 0 +-1896544103327155e-33 .017 0 -14140400614259
76e-31 1 0 -1 -1414040061425976e-31 0 .047 16 428 208 0 ?430 431 425 426 0 0 1 3
1 429 267 0 431 426 432 0 +-345198817089573e-32 .028 0 -1414040061425976e-31 1 0
 -1 -1414040061425976e-31 0 .047 16 431 214 0 ?433 434 428 429 0 0 1 31 432 268
 0 434 429 435 0 +-345198817089573e-32 .028 0 -1414040061425976e-31 1 0 -1 -1414
040061425976e-31 0 .049 16 434 220 0 ?436 437 431 432 0 0 1 31 435 269 0 437 432
 438 0 +-387620018932352e-32 .031 0 -1414040061425976e-31 1 0 -1 -14140400614259
76e-31 0 .049 16 437 226 0 ?439 440 434 435 0 0 1 38 438 1267 0 440 435 441 0 +4
42 443 444 445 445 16 440 1265 0 ?446 447 437 438 0 0 1 38 441 1334 0 447 438 44
8 0 +442 449 450 451 451 51 255 442 943 0 452 453 454 455 +-765312054186371e-33
 .006 0 2121060092138965e-31 -1 0 .054 1 2121060092138965e-31 0 51 443 1321 0 45
6 457 458 459 +.0497087112170058 .003 -.02109606667472225 .92053168920381 0 -.39
06679013837455 .000749999999999988 -.3906679013837455 0 -.92053168920381 40 255
 20 444 0 1 20 4228389640638715e-20 .337398064524873 ??.0494109156238512 .003 -.
02178443061483715 .0494279558727063 .003248240631141715 -.0217457393124675 .0494
769836164418 .00346849384845997 -.02163395692466705 .0495520388327599 .003635942
997558355 -.02146148754202875 .0496441499712758 .00373169991342976 -.02124754982
6497 .049742559537867 .00374495947268782 -.02101613120014615 .0498361168472826 .
00367424259453095 -.02079330319078715 .04991456326736 .00352752079741103 -.02060
428047345295 .0499695463968508 .00332131451169155 -.0204705748061204 .0499953455
885384 .003078877871942175 -.02040748439868615 .0499893219623745 .00282756722146
222 -.0204222351798736 .0499520951355875 .002595705650231235 -.02051312242359055
 .0498874864788804 .002409407036104055 -.0206697530904345 .0498022595245965 .002
28968099207676 -.0208742651665811 .049705597562535 .00225004233459154 -.02110340
188100755 .0496082442051212 .00229494903074864 -.0213312471947859 .0495213479626
191 .00241932988133449 -.0215322106613603 .0494551419264027 .002609181640931825
 -.02168384045872325 .0494176082358371 .002843105827657585 -.02176924427372995 .
0494109156238512 .003 -.02178443061483715 41 3 CI8 term_use0 0 1 cCZ1 445 H?.049
4109156238512 .003 -.02178443061483715 14 456 1312 460 ?461 462 463 4 443 -0 0 4
61 462 22 52 255 457 1387 0 461 449 443 0 +.04073251907885245 .003 -.03068976848
21981 .798676844683381 0 -.60176016631761 .000749999999999987 .857167300702112 .
515038074910055 -.60176016631761 0 -.798676844683381 52 458 1320 0 462 443 464 0
 +.0469471161493943 .003 -.019924062970571 .92053168920381 0 -.3906679013837455
 .000749999999999987 .857167300702114 .515038074910051 -.3906679013837455 0 -.92
053168920381 141 255 459 438 459 459 443 14 462 1307 465 ?456 466 467 4 458 -0 0
 456 466 22 50 464 1201 0 466 458 468 0 +-127263605528338e-32 .006 0 21210600921
38965e-31 -1 0 1 2121060092138965e-31 0 14 466 1186 469 ?462 470 471 4 464 -0 0
 462 470 22 50 468 1198 0 472 464 473 0 +-1045488953841614e-33 .006 -25227241356
84055e-34 -.669130606358851 -1419266225576508e-31 .7431448254774 .7431448254774
 0 .669130606358851 14 472 1178 474 ?470 475 476 4 468 -0 0 470 475 22 51 473 11
97 0 470 468 477 478 +-765312054186372e-33 .006 0 2121060092138965e-31 -1 0 .054
 1 2121060092138965e-31 0 14 470 1182 479 ?466 472 480 4 473 +0 0 466 472 22 50
 477 1196 0 475 473 481 0 +-1224190924005766e-33 .006 -1490987829894118e-34 -.30
9016994374938 -655443614561412e-31 .951056516295157 .951056516295157 0 .30901699
4374938 141 478 448 482 482 473 38 448 1401 0 483 441 484 0 +473 485 486 487 487
 141 482 484 478 478 473 38 484 1468 0 488 448 16 0 +473 489 490 491 491 16 488
 1466 0 ?492 24 483 484 0 0 1 38 16 1535 0 24 484 6 0 +17 493 494 495 495 51 489
 1522 0 496 497 498 499 +-.0497058127213477 .003 -.02110289510257555 -.920478013
358291 0 -.390794353751399 .000749999999999988 -.390794353751399 0 .920478013358
291 40 20 490 0 1 20 4228389640638465e-20 .3373980645248655 ??-.0499941140991197
 .003 -.02041050110713105 -.0499781190569002 .0032482406311417 -.020449636073395
25 -.049931767068949 .00346849384845996 -.0205625542521405 -.0498598407119394 .0
0363594299755834 -.0207363517567587 -.0497699325717465 .003731699913429745 -.020
95122458959875 -.0496718249724384 .003744959472687805 -.02118277139345655 -.0495
765262847794 .003674242594530935 -.0214048602316057 -.0494950481833721 .00352752
0797411015 -.0215925960765646 -.0494370628664638 .00332131451169153 -.0217250273
909449 -.0494096010498336 .00307887787194216 -.02178741205596215 -.0494160275114
925 .002827567221462205 -.0217728322682974 -.049455546396408 .00259570565023122
 -.02168291794553335 -.0495233361248367 .00240940703610404 -.02152763756352375 -
.0496112461836768 .002289680992076745 -.02132426439769055 -.0497089263010316 .00
225004233459153 -.0210955598645451 -.0498051971789332 .002294949030748625 -.0208
672550654747 -.0498893949966387 .002419329881334475 -.0206651461855308 -.0499524
777675666 .00260918164093181 -.0205121906407085 -.049987839038476 .0028431058276
57575 -.0204258646882675 -.0499941140991197 .003 -.02041050110713105 41 1 491 H?
-.0499941140991197 .003 -.02041050110713105 14 496 1513 500 ?501 502 503 4 489 -
0 0 501 502 22 52 497 1590 0 501 493 489 0 +-.00621881339558148 .003 .0506194267
050797 -.121937517560421 0 .992537778530975 .000749999999999987 .857167300702112
 .515038074910054 .992537778530975 0 .1219375175604212 52 498 1521 0 502 489 485
 0 +-.0469443786812729 .003 -.01993051204132135 -.920478013358291 0 -.3907943537
51399 .000749999999999987 .857167300702108 .515038074910061 -.390794353751399 0
 .920478013358291 141 499 484 499 499 489 14 502 1508 504 ?496 505 506 4 498 -0
 0 496 505 22 51 485 1455 0 505 498 507 508 +-.0431240852687427 .003 -.032500973
36595025 -.798594171643384 0 -.601869877147227 .000749999999999988 -.60186987714
7227 0 .798594171643384 14 505 1446 509 ?502 510 511 4 485 -0 0 502 510 22 52 50
7 1454 0 510 485 449 0 +-.04072830275381255 .003 -.03069536373450855 -.798594171
643384 0 -.601869877147227 .000749999999999987 .857167300702111 .515038074910057
 -.601869877147227 0 .798594171643384 141 508 448 508 508 485 14 510 1441 512 ?5
05 513 514 4 507 -0 0 505 513 22 51 449 1388 0 513 507 457 515 +.043128549612902
6 .003 -.03249504898115095 .798676844683381 0 -.60176016631761 .0007499999999999
88 -.60176016631761 0 -.798676844683381 14 513 1379 516 ?510 461 517 4 449 -0 0
 510 461 22 141 515 441 515 515 449 81 255 1 516 2145 518 513 519 0 512 520 521
 14 461 1374 520 ?513 456 522 4 457 -0 0 513 456 22 15 517 1382 0 523 513 524 13
 22 130 0 0 0 0 0 0 8 12 14 12 751 525 ?526 0 27 4 527 -0 0 526 0 22 81 1 525 21
47 518 12 528 0 520 529 530 14 526 737 529 ?531 12 532 4 533 -0 0 531 12 22 15 2
7 1120 0 28 12 534 51 527 243 0 12 535 536 0 --1734723475976805e-33 .01585561497
326205 0 -1414040061425976e-31 1 0 .05 -1 -1414040061425976e-31 0 50 535 242 0 5
37 533 527 0 +-226401751040504e-44 -1009760291997686e-35 0 -1414040061425976e-31
 1 0 -1 -1414040061425976e-31 0 50 536 244 0 538 527 539 0 +-520417042793043e-32
 .012 0 -1414040061425976e-31 1 0 -1 -1414040061425976e-31 0 14 538 187 540 ?541
 542 543 4 536 -0 0 541 542 22 51 539 245 0 542 536 544 0 --1734723475976805e-33
 .01585561497326205 0 -1414040061425976e-31 1 0 .054 -1 -1414040061425976e-31 0
 14 542 193 545 ?538 546 547 4 539 -0 0 538 546 22 50 544 246 0 546 539 548 0 +-
102974728708855e-47 .014 0 1414040061425976e-31 -1 0 1 1414040061425976e-31 0 14
 546 199 549 ?542 550 551 4 544 -0 0 542 550 22 51 548 247 0 550 544 552 0 --173
4723475976805e-33 .01585561497326205 0 -1414040061425976e-31 1 0 .049 -1 -141404
0061425976e-31 0 14 550 205 553 ?546 554 555 4 548 -0 0 546 554 22 50 552 248 0
 554 548 556 0 +-959764461752437e-48 .017 0 1414040061425976e-31 -1 0 1 14140400
61425976e-31 0 14 554 211 557 ?550 558 559 4 552 -0 0 550 558 22 51 556 249 0 55
8 552 560 0 --1734723475976805e-33 .01585561497326205 0 -1414040061425976e-31 1
 0 .047 -1 -1414040061425976e-31 0 14 558 217 561 ?554 562 563 4 556 -0 0 554 56
2 22 50 560 250 0 562 556 15 0 +485722573273504e-31 .028 0 -1414040061425976e-31
 1 0 -1 -1414040061425976e-31 0 14 562 223 564 ?558 565 566 4 560 -0 0 558 565 2
2 51 15 251 0 565 560 5 0 --1734723475976805e-33 .01585561497326205 0 -141404006
1425976e-31 1 0 .049 -1 -1414040061425976e-31 0 14 565 229 567 ?562 14 568 4 15
 -0 0 562 14 22 81 1 567 2156 518 565 569 0 564 570 571 14 14 233 570 ?565 537 5
72 4 5 -0 0 565 537 22 15 568 353 0 573 565 574 17 573 0 568 573 573 0 439 437 0
 0 -15 574 228 0 436 565 0 17 436 0 574 436 436 0 575 434 0 0 +17 575 0 566 575
 575 0 436 434 0 0 -15 566 352 0 575 562 576 15 576 222 0 433 562 0 17 433 0 576
 433 433 0 577 431 0 0 +17 577 0 563 577 577 0 433 431 0 0 -15 563 351 0 577 558
 578 15 578 216 0 430 558 0 17 430 0 578 430 430 0 579 428 0 0 +17 579 0 559 579
 579 0 430 428 0 0 -15 559 350 0 579 554 580 15 580 210 0 427 554 0 17 427 0 580
 427 427 0 581 425 0 0 +17 581 0 555 581 581 0 427 425 0 0 -15 555 349 0 581 550
 582 15 582 204 0 424 550 0 17 424 0 582 424 424 0 583 422 0 0 +17 583 0 551 583
 583 0 424 422 0 0 -15 551 348 0 583 546 584 15 584 198 0 421 546 0 17 421 0 584
 421 421 0 585 419 0 0 +17 585 0 547 585 585 0 421 419 0 0 -15 547 347 0 585 542
 586 15 586 192 0 418 542 0 17 418 0 586 418 418 0 587 416 0 0 +17 587 0 543 587
 587 0 418 416 0 0 -15 543 346 0 587 538 588 15 588 186 0 415 538 0 17 415 0 588
 415 415 0 589 411 0 0 +17 589 0 534 589 589 0 415 411 0 0 -15 534 345 0 589 12
 0 17 439 0 590 439 439 0 573 437 0 0 +15 590 232 0 439 14 0 81 1 570 2157 518 1
4 591 0 567 592 593 14 537 426 592 ?14 594 595 4 535 -531 594 14 594 22 15 572 3
54 0 596 14 590 17 596 0 572 596 596 0 387 378 0 0 -17 387 0 597 387 387 0 596 3
78 0 0 +15 597 138 0 387 598 0 14 598 139 599 ?600 601 602 4 603 -0 0 600 601 22
 81 1 599 2159 518 598 604 0 592 605 606 14 600 483 605 ?607 598 608 4 609 +0 0
 607 598 22 14 601 145 610 ?598 611 612 4 613 -0 0 598 611 22 15 602 338 0 614 5
98 597 51 603 236 0 598 615 613 0 +-1734723475976805e-33 .01585561497326205 0 -1
414040061425976e-31 1 0 .042 -1 -1414040061425976e-31 0 50 615 506 0 607 609 603
 0 +-787242286357256e-33 .006 -1031736305789938e-34 -.978147600733804 -207470984
013795e-30 .207911690817767 .207911690817767 0 .978147600733804 50 613 237 0 601
 603 616 0 +-849791450509972e-48 .006 0 -1414040061425976e-31 1 0 -1 -1414040061
425976e-31 0 52 616 238 0 611 613 617 0 --341100035758583e-33 .006 0 -1414040061
425976e-31 1 0 .043 .707106781186496 .707106781186599 -1 -1414040061425976e-31 0
 14 611 151 618 ?601 619 620 4 616 -0 0 601 619 22 51 617 239 0 619 616 621 0 --
1734723475976805e-33 .01585561497326205 0 -1414040061425976e-31 1 0 .044 -1 -141
4040061425976e-31 0 14 619 157 622 ?611 541 623 4 617 -0 0 611 541 22 50 621 240
 0 541 617 533 0 +-433680868994202e-32 .01 0 -1414040061425976e-31 1 0 -1 -14140
40061425976e-31 0 14 541 163 624 ?619 538 625 4 621 -0 0 619 538 22 51 533 241 0
 526 621 535 0 +-1734723475976805e-33 .01585561497326205 0 -1414040061425976e-31
 1 0 .048 -1 -1414040061425976e-31 0 81 1 624 2164 518 541 626 0 622 627 628 15
 625 342 0 629 541 630 17 629 0 625 629 629 0 402 400 0 0 -15 630 162 0 399 541
 0 17 399 0 630 399 399 0 631 397 0 0 +17 631 0 623 631 631 0 399 397 0 0 -15 62
3 341 0 631 619 632 15 632 156 0 396 619 0 17 396 0 632 396 396 0 633 394 0 0 +1
7 633 0 620 633 633 0 396 394 0 0 -15 620 340 0 633 611 634 15 634 150 0 393 611
 0 17 393 0 634 393 393 0 635 391 0 0 +17 635 0 612 635 635 0 393 391 0 0 -15 61
2 339 0 635 601 636 15 636 144 0 390 601 0 17 390 0 636 390 390 0 614 388 0 0 +1
7 614 0 602 614 614 0 390 388 0 0 -17 402 0 532 402 402 0 629 400 0 0 +15 532 16
8 0 402 526 637 15 637 735 0 323 526 0 17 323 0 637 638 639 109 121 321 0 640 +1
7 638 0 637 641 323 95 640 408 0 0 -17 639 0 637 323 642 101 307 305 0 0 -17 121
 0 643 124 111 101 323 321 0 644 -17 640 0 645 320 646 109 638 408 0 0 +15 645 7
21 0 320 531 0 17 320 0 645 147 640 113 111 309 0 0 +17 646 0 645 640 647 95 94
 335 0 638 -16 408 551 0 ?640 404 403 401 404 403 1 16 403 713 0 ?69 408 400 401
 408 404 1 17 69 0 595 374 648 67 649 403 0 650 +15 595 424 0 651 537 0 17 374 0
 595 132 69 71 650 363 0 0 +17 648 0 595 69 651 57 118 298 0 649 -17 649 0 637 6
42 377 57 69 403 0 0 -17 650 0 608 652 381 67 374 363 0 377 -15 608 486 0 650 60
0 0 17 652 0 608 82 650 63 377 375 0 653 -17 381 0 608 650 82 71 654 379 0 374 +
17 377 0 637 649 653 67 652 375 0 0 +17 653 0 637 377 655 63 361 359 0 0 -17 655
 0 637 653 656 70 79 371 0 0 -17 361 0 657 365 65 70 653 359 0 655 +15 657 498 0
 361 658 0 17 365 0 657 368 361 83 87 362 0 659 +17 65 0 657 361 368 63 82 369 0
 652 -17 368 0 657 65 365 66 659 366 0 654 +17 82 0 608 381 652 66 65 369 0 368
 +17 659 0 27 384 654 83 368 366 0 0 -17 654 0 27 659 73 66 381 379 0 0 -17 73 0
 27 654 297 71 132 407 0 381 +17 297 0 27 73 53 130 660 295 0 661 +17 132 0 595
 289 374 130 73 407 0 297 -16 407 863 0 ?73 662 404 405 662 663 1 16 662 707 0 ?
56 663 407 405 413 407 1 16 663 990 0 ?115 413 662 405 407 412 1 17 115 0 27 664
 267 113 147 663 0 327 +16 413 571 0 ?47 412 663 405 409 662 1 16 412 1117 0 ?90
 409 413 405 663 409 1 17 90 0 27 665 34 88 162 412 0 350 +17 665 0 27 666 90 80
 350 348 0 0 -17 34 0 27 90 28 160 36 238 0 667 +17 162 0 668 232 346 160 90 412
 0 34 -17 350 0 669 100 103 88 665 348 0 346 +15 669 637 0 100 670 0 17 100 0 66
9 671 350 98 346 324 0 358 -17 103 0 669 350 671 80 62 332 0 343 +17 346 0 668 1
62 406 88 100 324 0 0 +15 668 579 0 346 594 0 17 406 0 668 346 672 98 656 404 0
 0 +17 672 0 668 406 673 77 76 351 0 656 -17 656 0 637 655 358 77 406 404 0 0 -1
7 358 0 637 656 674 98 671 344 0 406 +17 674 0 637 358 641 60 337 334 0 0 -17 67
1 0 669 103 100 60 358 344 0 674 -17 641 0 637 674 638 91 97 355 0 0 -17 337 0 6
75 340 62 91 674 334 0 641 +15 675 653 0 62 676 0 17 340 0 675 343 337 104 108 3
38 0 666 +17 62 0 675 337 343 60 103 332 0 671 -17 343 0 675 62 340 80 666 341 0
 665 +17 666 0 27 354 665 104 343 341 0 0 -17 354 0 27 47 666 92 106 352 0 647 +
17 47 0 27 41 354 45 647 413 0 271 +17 106 0 677 108 94 104 354 352 0 340 -17 64
7 0 645 646 678 92 47 413 0 0 -17 678 0 645 647 262 45 264 249 0 0 -17 262 0 645
 678 259 149 679 260 0 0 +17 264 0 680 681 271 149 678 249 0 262 +15 680 1054 0
 264 682 0 17 681 0 680 683 264 140 151 272 0 251 -17 271 0 680 264 683 45 41 26
9 0 678 +17 683 0 680 271 681 37 157 252 0 0 -17 41 0 27 44 47 37 271 269 0 256
 -17 44 0 27 267 41 42 256 254 0 684 -17 256 0 685 157 686 37 44 254 0 683 +15 6
85 1062 0 686 687 0 17 157 0 685 688 256 140 683 252 0 681 +17 686 0 685 256 688
 42 247 245 0 0 -17 688 0 685 686 157 148 251 248 0 247 -17 247 0 689 154 684 14
8 686 245 0 0 +15 689 1046 0 690 691 0 17 154 0 689 690 247 152 159 257 0 679 +1
7 684 0 689 247 690 42 267 265 0 686 -17 690 0 689 684 154 145 259 240 0 0 -17 2
67 0 27 115 44 145 684 265 0 690 +17 259 0 645 262 147 152 690 240 0 0 +17 147 0
 645 259 320 145 115 663 0 267 -17 159 0 692 251 679 148 154 257 0 688 -17 679 0
 692 159 151 152 262 260 0 259 -15 692 1058 0 679 693 0 17 151 0 692 679 251 149
 681 272 0 264 +17 251 0 692 151 159 140 688 248 0 0 +14 693 1055 627 ?687 682 6
94 4 17 +0 0 687 682 22 81 1 627 2165 518 693 695 0 624 696 697 14 687 1059 696
 ?475 693 685 4 481 -0 0 475 693 22 14 682 1051 698 ?693 691 680 4 699 -0 0 693
 691 22 15 694 1606 0 700 693 701 51 17 1070 0 693 699 702 703 +-765312054186371
e-33 .006 0 2121060092138965e-31 -1 0 .054 1 2121060092138965e-31 0 50 699 1071
 0 682 481 17 0 +-787242286357254e-33 .006 1031736305789904e-34 .978147600733806
 2074709840137955e-31 .2079116908177595 .2079116908177595 0 -.978147600733806 50
 702 1069 0 691 17 704 0 +-787242286357254e-33 .006 -1031736305789904e-34 .97814
7600733806 2074709840137955e-31 -.20791169081776 -.20791169081776 0 -.9781476007
33806 141 703 16 705 705 17 141 705 6 703 703 17 14 691 1043 706 ?682 707 689 4
 702 +0 0 682 707 22 50 704 947 0 707 702 453 0 +-127263605528338e-32 .006 0 212
1060092138965e-31 -1 0 1 2121060092138965e-31 0 14 707 932 708 ?691 452 709 4 70
4 -0 0 691 452 22 50 453 944 0 710 704 442 0 +-122419092400576e-32 .006 14909878
29894176e-34 -.309016994374952 -655443614561441e-31 -.951056516295152 -.95105651
6295152 0 .309016994374952 14 710 924 711 ?452 712 713 4 453 -0 0 452 712 22 81
 1 711 2170 518 710 714 0 708 715 716 14 452 928 715 ?707 710 717 4 442 +0 0 707
 710 22 14 712 916 718 ?710 719 720 4 454 +0 0 710 719 22 15 713 927 0 294 710 0
 17 294 0 713 721 301 134 722 279 0 292 +17 721 0 713 723 294 119 136 302 0 281
 -17 301 0 713 294 723 54 50 299 0 722 +17 722 0 595 651 292 54 294 279 0 0 -17
 292 0 595 722 289 134 724 290 0 0 +17 289 0 595 292 132 137 661 268 0 0 +17 724
 0 725 144 136 137 292 290 0 289 -15 725 931 0 724 452 0 17 144 0 725 281 724 13
3 139 287 0 726 -17 136 0 725 724 281 134 721 302 0 294 +17 281 0 725 136 144 11
9 726 278 0 0 +17 726 0 709 727 142 133 281 278 0 277 -15 709 935 0 727 707 0 17
 727 0 709 286 726 51 277 275 0 0 -17 142 0 709 726 286 119 723 282 0 721 +17 27
7 0 720 139 660 133 727 275 0 0 +15 720 919 0 661 712 0 17 139 0 720 661 277 137
 144 287 0 724 +17 660 0 720 277 661 51 297 295 0 727 -17 661 0 720 660 139 130
 289 268 0 0 -17 286 0 709 142 727 48 53 284 0 723 +17 723 0 713 301 721 48 142
 282 0 0 -17 53 0 27 297 50 51 286 284 0 660 -17 50 0 27 53 56 48 301 299 0 286
 -17 56 0 27 50 330 54 651 662 0 301 +17 330 0 27 56 728 116 127 328 0 651 +17 6
51 0 595 648 722 116 56 662 0 0 -17 728 0 27 330 664 125 314 312 0 0 -17 127 0 7
29 129 118 125 330 328 0 311 -15 729 805 0 118 730 0 17 129 0 729 59 127 112 311
 308 0 307 -17 118 0 729 127 59 116 648 298 0 330 +17 311 0 731 314 307 125 129
 308 0 728 +15 731 809 0 307 719 0 17 314 0 731 644 311 122 728 312 0 664 +17 30
7 0 731 311 644 112 639 305 0 642 +17 644 0 731 307 314 101 124 315 0 639 -17 64
2 0 637 639 649 112 59 317 0 0 -17 59 0 729 118 129 57 642 317 0 648 +17 124 0 6
43 327 121 122 644 315 0 314 +15 643 797 0 111 732 0 17 327 0 643 111 124 113 66
4 325 0 320 +17 111 0 643 121 327 109 320 309 0 323 -17 664 0 27 728 115 122 327
 325 0 0 -14 732 794 733 ?730 676 643 4 734 +0 0 730 676 22 81 1 733 2173 518 73
2 735 0 718 736 737 14 730 802 736 ?719 732 729 4 738 -0 0 719 732 22 14 676 650
 739 ?732 740 675 4 741 +0 0 732 740 22 50 734 819 0 732 742 738 0 +-10454889538
4161e-32 .006 -252272413568406e-33 .669130606358857 141926622557652e-30 -.743144
825477395 -.743144825477396 0 -.669130606358857 50 742 821 0 719 454 734 0 +-127
263605528338e-32 .006 0 2121060092138965e-31 -1 0 1 2121060092138965e-31 0 50 73
8 817 0 730 734 741 0 +-1224190924005762e-33 .006 -1490987829894146e-34 .3090169
94374945 655443614561427e-31 -.951056516295154 -.951056516295155 0 -.30901699437
4945 50 741 665 0 676 738 743 0 +-127263605528338e-32 .006 0 2121060092138965e-3
1 -1 0 1 2121060092138965e-31 0 50 743 662 0 740 741 744 0 +-1045488953841602e-3
3 .006 252272413568407e-33 .669130606358868 1419266225576542e-31 .74314482547738
6 .743144825477386 0 -.669130606358868 14 740 642 745 ?676 670 677 4 743 -0 0 67
6 670 22 50 744 660 0 670 743 746 0 +-122419092400576e-32 .006 1490987829894206e
-34 .3090169943749585 655443614561456e-31 .95105651629515 .95105651629515 0 -.30
90169943749585 14 670 634 747 ?740 658 669 4 744 +0 0 740 658 22 50 746 510 0 65
8 744 609 0 +-127263605528338e-32 .006 0 2121060092138965e-31 -1 0 1 21210600921
38965e-31 0 14 658 495 748 ?670 607 657 4 746 +0 0 670 607 22 50 609 508 0 600 7
46 615 0 +-787242286357253e-33 .006 1031736305789872e-34 -.978147600733807 -2074
709840137955e-31 -.2079116908177525 -.207911690817753 0 .978147600733807 81 1 74
8 2178 518 658 749 0 747 750 751 14 607 491 750 ?658 600 752 4 615 -0 0 658 600
 22 81 1 750 2179 518 607 753 0 748 754 755 15 752 494 0 76 607 0 17 76 0 752 85
 79 74 672 351 0 384 +17 85 0 752 87 76 83 384 382 0 365 -17 79 0 752 76 87 77 6
55 371 0 672 +17 384 0 27 29 659 74 85 382 0 673 +17 29 0 27 25 384 33 673 409 0
 30 +17 673 0 668 672 756 74 29 409 0 0 -17 756 0 668 673 235 33 237 224 0 0 -17
 235 0 668 756 232 164 757 233 0 0 +17 237 0 476 758 30 164 756 224 0 235 +15 47
6 1181 0 237 472 0 17 758 0 476 759 237 155 166 242 0 226 -17 30 0 476 237 759 3
3 25 31 0 756 +17 759 0 476 30 758 10 172 227 0 0 -17 172 0 471 760 32 155 759 2
27 0 758 +15 471 1189 0 761 466 0 17 760 0 471 761 172 163 226 223 0 222 -17 32
 0 471 172 761 10 28 35 0 759 +17 761 0 471 32 760 26 222 220 0 0 -17 222 0 762
 169 36 163 761 220 0 0 +15 762 1173 0 667 475 0 17 169 0 762 667 222 167 174 23
0 0 757 +17 36 0 762 222 667 26 34 238 0 761 -17 667 0 762 36 169 160 232 219 0
 0 -17 232 0 668 235 162 167 667 219 0 0 +17 174 0 763 226 757 163 169 230 0 760
 -17 757 0 763 174 166 167 235 233 0 232 -15 763 1185 0 757 470 0 17 166 0 763 7
57 226 164 758 242 0 237 +17 226 0 763 166 174 155 760 223 0 0 +14 475 1170 754
 ?472 687 762 4 477 +0 0 472 687 22 81 1 754 2180 518 475 764 0 750 765 766 80 2
55 1 518 767 768 9000 1 1 1 1 1 1 1 1 0 FFFFTFTFFFFFFF1 81 1 764 2010 769 475 0
 754 770 771 772 81 1 765 2181 518 501 773 0 754 774 775 82 255 1 766 980025653
 14 501 1577 765 ?196 496 776 4 497 -0 0 196 496 22 81 1 773 2022 769 501 0 765
 777 778 779 81 1 774 2182 518 196 778 0 765 780 781 82 1 775 -1451228871 14 196
 1582 774 ?192 501 782 4 493 -0 0 192 501 22 81 1 778 2023 769 196 0 774 773 783
 784 81 1 780 2183 518 195 785 0 774 786 787 82 1 781 -1451818695 14 195 1651 78
0 ?0 192 788 4 18 -0 0 0 192 22 81 1 785 2025 769 195 0 780 783 0 789 81 1 786 2
184 518 594 790 0 780 791 792 82 1 787 -1467743943 14 594 581 786 ?537 531 668 4
 535 -537 531 537 531 22 81 1 790 1977 769 594 0 786 793 794 795 81 1 791 2185 5
18 531 793 0 786 796 797 82 1 792 884277557 14 531 723 791 ?594 526 645 4 535 -5
94 537 594 526 22 81 1 793 1976 769 531 0 791 798 790 799 81 1 796 2186 518 719
 800 0 791 0 801 82 1 797 912195892 14 719 806 796 ?712 730 731 4 742 +0 0 712 7
30 22 81 1 800 2001 769 719 0 796 802 803 804 82 1 801 899481906 80 1 769 0 805
 8001 0 0 0 0 3 5 0 0 0 FFFFTFTFFFFFFF2 81 1 802 2000 769 730 0 736 735 800 806
 81 1 803 2002 769 712 0 718 800 714 807 83 255 3 804 .792156862745098 .81960784
3137255 .933333333333333 81 1 718 2172 518 712 803 0 715 733 808 81 1 714 2003 7
69 710 0 711 803 809 810 83 3 807 .792156862745098 .819607843137255 .93333333333
3333 81 1 809 2004 769 452 0 715 714 811 812 83 3 810 .792156862745098 .81960784
3137255 .933333333333333 81 1 715 2171 518 452 809 0 711 718 813 81 1 811 2005 7
69 707 0 708 809 814 815 83 3 812 .792156862745098 .819607843137255 .93333333333
3333 81 1 708 2169 518 707 811 0 706 711 816 81 1 814 2006 769 691 0 706 811 817
 818 83 3 815 .792156862745098 .819607843137255 .933333333333333 81 1 706 2168 5
18 691 814 0 698 708 819 81 1 817 2007 769 682 0 698 814 695 820 83 3 818 .79215
6862745098 .819607843137255 .933333333333333 81 1 698 2167 518 682 817 0 696 706
 821 81 1 695 2008 769 693 0 627 817 770 822 83 3 820 .792156862745098 .81960784
3137255 .933333333333333 81 1 770 2009 769 687 0 696 695 764 823 83 3 822 .79215
6862745098 .819607843137255 .933333333333333 81 1 696 2166 518 687 770 0 627 698
 824 83 3 823 .792156862745098 .819607843137255 .933333333333333 82 1 824 948699
444 82 1 821 956432692 82 1 819 956891444 82 1 816 924713267 82 1 813 932708665
 82 1 808 932905267 81 1 736 2174 518 730 802 0 733 739 825 81 1 735 1999 769 73
2 0 733 826 802 827 83 3 806 .792156862745098 .819607843137255 .933333333333333
 81 1 826 1998 769 676 0 739 828 735 829 83 3 827 .792156862745098 .819607843137
255 .933333333333333 81 1 739 2175 518 676 826 0 736 745 830 81 1 828 1997 769 7
40 0 745 831 826 832 83 3 829 .792156862745098 .819607843137255 .933333333333333
 81 1 745 2176 518 740 828 0 739 747 833 81 1 831 1996 769 670 0 747 749 828 834
 83 3 832 .792156862745098 .819607843137255 .933333333333333 81 1 747 2177 518 6
70 831 0 745 748 835 81 1 749 1995 769 658 0 748 753 831 836 83 3 834 .792156862
745098 .819607843137255 .933333333333333 81 1 753 1994 769 607 0 750 837 749 838
 83 3 836 .792156862745098 .819607843137255 .933333333333333 81 1 837 1993 769 6
00 0 605 604 753 839 83 3 838 .792156862745098 .819607843137255 .933333333333333
 81 1 605 2160 518 600 837 0 599 610 840 81 1 604 1992 769 598 0 599 841 837 842
 83 3 839 .792156862745098 .819607843137255 .933333333333333 81 1 841 1991 769 6
01 0 610 843 604 844 83 3 842 .792156862745098 .819607843137255 .933333333333333
 81 1 610 2161 518 601 841 0 605 618 845 81 1 843 1990 769 611 0 618 846 841 847
 83 3 844 .792156862745098 .819607843137255 .933333333333333 81 1 618 2162 518 6
11 843 0 610 622 848 81 1 846 1989 769 619 0 622 626 843 849 83 3 847 .792156862
745098 .819607843137255 .933333333333333 81 1 622 2163 518 619 846 0 618 624 850
 81 1 626 1988 769 541 0 624 851 846 852 83 3 849 .792156862745098 .819607843137
255 .933333333333333 81 1 851 1987 769 538 0 540 853 626 854 83 3 852 .792156862
745098 .819607843137255 .933333333333333 81 1 540 2149 518 538 851 0 529 545 855
 81 1 853 1986 769 542 0 545 856 851 857 83 3 854 .792156862745098 .819607843137
255 .933333333333333 81 1 545 2150 518 542 853 0 540 549 858 81 1 856 1985 769 5
46 0 549 859 853 860 83 3 857 .792156862745098 .819607843137255 .933333333333333
 81 1 549 2151 518 546 856 0 545 553 861 81 1 859 1984 769 550 0 553 862 856 863
 83 3 860 .792156862745098 .819607843137255 .933333333333333 81 1 553 2152 518 5
50 859 0 549 557 864 81 1 862 1983 769 554 0 557 865 859 866 83 3 863 .792156862
745098 .819607843137255 .933333333333333 81 1 557 2153 518 554 862 0 553 561 867
 81 1 865 1982 769 558 0 561 868 862 869 83 3 866 .792156862745098 .819607843137
255 .933333333333333 81 1 561 2154 518 558 865 0 557 564 870 81 1 868 1981 769 5
62 0 564 569 865 871 83 3 869 .792156862745098 .819607843137255 .933333333333333
 81 1 564 2155 518 562 868 0 561 567 872 81 1 569 1980 769 565 0 567 591 868 873
 83 3 871 .792156862745098 .819607843137255 .933333333333333 81 1 591 1979 769 1
4 0 570 794 569 874 83 3 873 .792156862745098 .819607843137255 .933333333333333
 81 1 794 1978 769 537 0 592 790 591 875 83 3 874 .792156862745098 .819607843137
255 .933333333333333 81 1 592 2158 518 537 794 0 570 599 876 83 3 875 .792156862
745098 .819607843137255 .933333333333333 82 1 876 855114035 82 1 872 1090715911
 82 1 870 1090060551 82 1 867 1089405191 82 1 864 1088749831 82 1 861 1088094471
 82 1 858 1087439111 81 1 529 2148 518 526 798 0 525 540 877 82 1 855 1086783751
 81 1 798 1975 769 526 0 529 528 793 878 82 1 877 913506610 81 1 528 1974 769 12
 0 525 0 798 879 83 3 878 .792156862745098 .819607843137255 .933333333333333 83
 3 879 .792156862745098 .819607843137255 .933333333333333 82 1 850 1083506951 82
 1 848 1082851591 82 1 845 1082196231 82 1 840 849150256 82 1 835 878117169 82 1
 833 877855025 82 1 830 870252849 82 1 825 907411762 79 255 15 805 SDL/TYSA_COLO
UR83 3 799 .792156862745098 .819607843137255 .933333333333333 83 3 795 .79215686
2745098 .819607843137255 .933333333333333 81 1 783 2024 769 192 0 194 778 785 88
0 83 3 789 .792156862745098 .819607843137255 .933333333333333 81 1 194 2135 518
 192 783 0 0 460 881 83 3 880 .792156862745098 .819607843137255 .933333333333333
 81 1 460 2136 518 456 882 0 194 465 883 82 1 881 -1467154119 81 1 882 2015 769
 456 0 460 884 885 886 81 1 465 2137 518 462 884 0 460 469 887 82 1 883 -1387986
631 81 1 884 2014 769 462 0 465 888 882 889 81 1 469 2138 518 466 888 0 465 474
 890 82 1 887 -1387396807 81 1 888 2013 769 466 0 469 891 884 892 81 1 474 2139
 518 472 771 0 469 479 893 82 1 890 971833653 81 1 771 2011 769 472 0 474 764 89
1 894 81 1 479 2140 518 470 891 0 474 500 895 82 1 893 979566901 81 1 891 2012 7
69 470 0 479 771 888 896 81 1 500 2141 518 496 777 0 479 504 897 82 1 895 979829
049 81 1 777 2021 769 496 0 500 898 773 899 81 1 504 2142 518 502 898 0 500 509
 900 82 1 897 -1435893447 81 1 898 2020 769 502 0 504 901 777 902 81 1 509 2143
 518 505 901 0 504 512 903 82 1 900 -1435303623 81 1 901 2019 769 505 0 509 904
 898 905 81 1 512 2144 518 510 904 0 509 516 906 82 1 903 -1419902663 81 1 904 2
018 769 510 0 512 519 901 907 82 1 906 -1419312839 81 1 519 2017 769 513 0 516 8
85 904 908 83 3 907 .792156862745098 .819607843137255 .933333333333333 81 1 885
 2016 769 461 0 520 882 519 909 83 3 908 .792156862745098 .819607843137255 .9333
33333333333 81 1 520 2146 518 461 885 0 516 525 910 83 3 909 .792156862745098 .8
19607843137255 .933333333333333 82 1 910 -1403322055 83 3 905 .792156862745098 .
819607843137255 .933333333333333 83 3 902 .792156862745098 .819607843137255 .933
333333333333 83 3 899 .792156862745098 .819607843137255 .933333333333333 83 3 89
6 .792156862745098 .819607843137255 .933333333333333 83 3 894 .792156862745098 .
819607843137255 .933333333333333 83 3 892 .792156862745098 .819607843137255 .933
333333333333 83 3 889 .792156862745098 .819607843137255 .933333333333333 83 3 88
6 .792156862745098 .819607843137255 .933333333333333 15 788 1654 0 23 195 201 51
 18 1660 0 195 0 197 911 +.00657726310844546 .003 .0535979440837266 .12180116867
49158 0 .992554520069011 .000749999999999988 .992554520069011 0 -.12180116867491
58 52 197 1659 0 192 18 493 0 +.00621185960242071 .003 .0506202805235196 .121801
1686749158 0 .992554520069011 .000749999999999987 .857167300702113 .515038074910
052 .992554520069011 0 -.1218011686749158 141 911 6 911 911 18 51 493 1591 0 196
 197 497 912 +-.00658462594826275 .003 .0535970400406726 -.121937517560421 0 .99
2537778530975 .000749999999999988 .992537778530975 0 .1219375175604212 141 912 1
6 912 912 493 17 23 0 788 23 23 0 700 9 0 0 +15 201 1655 0 199 195 0 17 700 0 69
4 700 700 0 23 9 0 0 -83 3 784 .792156862745098 .819607843137255 .93333333333333
3 15 782 1585 0 913 196 914 17 913 0 782 913 913 0 915 24 0 0 +15 914 1586 0 916
 196 0 17 916 0 914 916 916 0 204 202 0 0 -17 204 0 917 204 204 0 916 202 0 0 +1
5 917 1581 0 204 501 0 17 915 0 701 915 915 0 913 24 0 0 -16 24 1533 0 ?913 9 48
8 16 0 0 1 15 701 1537 0 915 693 692 83 3 779 .792156862745098 .819607843137255
 .933333333333333 15 776 1580 0 188 501 917 17 188 0 776 188 188 186 0 0 0 0 ?83
 3 772 .792156862745098 .819607843137255 .933333333333333 79 14 768 SWEntUnchang
ed17 87 0 752 79 85 70 365 362 0 361 -82 1 755 849609008 82 1 751 841679152 15 6
77 645 0 94 740 0 17 94 0 677 106 97 92 646 335 0 354 +17 97 0 677 94 108 95 641
 355 0 646 +17 108 0 677 97 106 91 340 338 0 337 -50 454 942 0 712 442 742 0 +-1
045488953841606e-33 .006 2522724135684065e-34 -.669130606358862 -141926622557653
e-30 -.743144825477391 -.743144825477391 0 .669130606358862 82 1 737 906953010 1
5 717 1336 0 918 452 919 17 918 0 717 918 918 0 523 447 0 0 -15 919 1269 0 920 4
52 725 17 920 0 919 920 920 0 446 440 0 0 -17 446 0 463 446 446 0 920 440 0 0 +1
5 463 1315 0 446 456 921 15 921 1316 0 922 456 0 17 922 0 921 922 922 0 218 216
 0 0 -17 218 0 923 218 218 0 922 216 0 0 +15 923 1311 0 218 462 0 17 523 0 517 5
23 523 0 918 447 0 0 +16 447 1332 0 ?523 483 440 441 0 0 1 16 483 1399 0 ?924 48
8 447 448 0 0 1 17 924 0 511 924 924 0 925 483 0 0 +15 511 1449 0 924 505 926 17
 925 0 927 925 925 0 924 483 0 0 -15 927 1403 0 925 470 763 15 926 1450 0 928 50
5 0 17 928 0 926 928 928 0 212 210 0 0 -17 212 0 929 212 212 0 928 210 0 0 +15 9
29 1445 0 212 510 0 82 1 716 932446515 50 481 1074 0 687 477 699 0 +-12726360552
8338e-32 .006 0 2121060092138965e-31 -1 0 1 2121060092138965e-31 0 82 1 697 9566
94841 82 1 628 1084162311 82 1 606 1081540871 82 1 593 1091764487 82 1 571 10913
71271 82 1 530 914817333 15 524 1383 0 930 513 0 17 930 0 524 930 930 0 215 213
 0 0 -17 215 0 931 215 215 0 930 213 0 0 +15 931 1378 0 215 461 0 15 522 1377 0
 179 461 931 17 179 0 522 179 179 177 0 0 0 0 ?82 1 521 -1403911879 15 514 1444
 0 182 510 929 17 182 0 514 182 182 180 0 0 0 0 ?15 506 1511 0 185 502 932 17 18
5 0 506 185 185 183 0 0 0 0 ?15 932 1512 0 209 502 0 17 209 0 932 209 209 0 933
 205 0 0 +17 933 0 934 933 933 0 209 205 0 0 -15 934 1517 0 933 496 0 15 503 151
6 0 492 496 934 17 492 0 503 492 492 0 935 488 0 0 +17 935 0 480 935 935 0 492 4
88 0 0 -15 480 1470 0 935 470 927 40 20 494 0 1 20 42283896406387e-18 .337398064
52487 ??-.00583958749249681 .003 .0536833234619232 -.005881615267682 .0032482406
31141705 .0536787350991337 -.00600293552708062 .003468493848459965 .053665303176
7986 -.00618982600197943 .003635942997558345 .0536440682094975 -.006421157067715
53 .00373169991342975 .0536168699376579 -.00667077626033982 .00374495947268781 .
0535863858091259 -.00691052963182718 .003674242594530945 .05355599481111 -.00711
345131696974 .00352752079741102 .0535294200450659 -.00725673538625507 .003321314
51169154 .0535101839983183 -.00732427287767201 .003078877871942165 .053500981549
9996 -.00730848651335604 .002827567221462215 .0535031403273125 -.007211162438023
75 .00259570565023123 .0535163445714712 -.00704321197317164 .00240940703610405 .
0535387071668804 -.00682348584270605 .00228968099207675 .0535671544974567 -.0065
7671664604231 .002250042334591535 .053598011139945 -.00633072013747007 .00229494
903074863 .0536276233161701 -.00611323254893306 .002419329881334485 .05365285069
59571 -.00594881427433785 .002609181640931815 .0536713294853913 -.00585608555567
913 .002843105827657575 .0536815262633671 -.00583958749249681 .003 .053683323461
9232 41 1 495 H?-.00583958749249681 .003 .0536833234619232 40 20 486 0 1 20 4228
389640638435e-20 .3373980645248725 ??-.04357132813135415 .003 -.0318988928470859
 -.04354634060502405 .0032482406311417 -.03193299578666605 -.0434740480893609 .0
03468493848459955 -.03203134625213145 -.04336221283078015 .00363594299755834 -.0
321825806674686 -.04322299290356005 .003731699913429745 -.0323693201111608 -.043
0717832775269 .003744959472687805 -.03257025460897955 -.0429255872154551 .003674
24259453094 -.03276269162032265 -.04280111195039 .00352752079741102 -.0329251395
716128 -.0427128110105955 .003321314511691535 -.03303960919219765 -.042671072710
86605 .00307887787194216 -.0330934971513133 -.0426808354490181 .0028275672214622
1 -.0330809051474387 -.0427409326975635 .002595705650231225 -.03300322214788045
 -.04284427450570845 .002409407036104045 -.03286895407644575 -.04297877368189015
 .002289680992076745 -.0326928893308754 -.04312888091649245 .00225004233459153 -
.0324946092589373 -.0432775240676508 .002294949030748625 -.03229637612138405 -.0
434081154136858 .002419329881334475 -.03212064003459665 -.0435063276520646 .0026
0918164093181 -.0319874890266679 -.0435615226801577 .00284310582765757 -.0319122
8198963695 -.04357132813135415 .003 -.0318988928470859 41 1 487 H?-.043571328131
35415 .003 -.0318988928470859 15 467 1310 0 176 462 923 17 176 0 467 176 176 170
 0 0 0 0 ?141 455 438 936 936 442 141 936 441 455 455 442 40 20 450 0 1 20 42283
8964063909e-19 .337398064524873 ??.04267306951230585 .003 -.0330909222959698 .04
269896386615715 .003248240631141715 -.033057502699941 .042773577883524 .00346849
384845997 -.0329609016114867 .0428881277591329 .00363594299755835 -.032811712806
80565 .04302925902085905 .00373169991342976 -.03262641365697155 .043180730635510
95 .00374495947268782 -.03242567658173755 .0433254158674156 .00367424259453095 -
.03223210107820295 .0434472608276473 .00352752079741103 -.0320676710500526 .0435
3295705170305 .00332131451169155 -.0319512386353734 .04357325284809945 .00307887
787194217 -.0318962636720289 .0435638396124295 .00282756722146222 -.031909119044
9144 .0435057309672095 .002595705650231235 -.0319883005645625 .0434051490758942
 .002409407036104055 -.0321246483825022 .0432729777772546 .002289680992076755 -.
0323024673096225 .0431237539002674 .00225004233459154 -.03250141303926915 .04297
417158341735 .002294949030748635 -.03269893846471175 .0428412390679082 .00241932
9881334495 -.0328729103537599 .0427403170659063 .002609181640931825 -.0330040194
0833565 .0426832372335413 .00284310582765758 -.03307780614347385 .04267306951230
585 .003 -.0330909222959698 41 1 451 H?.04267306951230585 .003 -.033090922295969
8 19 13 126 0 1 0 8 4 S0 40 20 19 0 1 20 4228389640638675e-20 .337398064524869 ?
?.00732104458681418 .003 .053501423403101 .00727915519074337 .00324824063114171
 .0535071387733364 .00715818918542534 .003468493848459965 .0535234558636273 .006
97171295280684 .003635942997558345 .0535480645635644 .00674067355088778 .0037316
99913429755 .0535776382465704 .00649109433692778 .00374495947268781 .05360844797
51942 .00625111041736416 .003674242594530945 .0536369613098088 .0060477873557251
1 .003527520797411025 .0536602671266174 .00590410581476109 .00332131451169154 .0
536762660263184 .00583634820173443 .00307887787194217 .0536836757279912 .0058521
8789906336 .002827567221462215 .0536819513132119 .00594981542919888 .00259570565
023123 .053671218510096 .00611818704894287 .00240940703610405 .0536522859460261
 .00633826840642256 .002289680992076755 .0536267317073132 .00658517240076457 .00
2250042334591535 .0535969729038143 .00683102559551623 .002294949030748635 .05356
61935301866 .00704815592873085 .002419329881334485 .0535380565392908 .0072121607
0166056 .002609181640931815 .0535162100490442 .00730460180493506 .00284310582765
758 .0535036708317414 .00732104458681418 .003 .053501423403101 41 1 20 H?.007321
04458681418 .003 .053501423403101 74 4 CI16 index_map_offset0 0 1 dCCZ20 11 2 0
 0 796 785 0 0 0 0 0 0 0 0 0 0 0 0 0 0 0 0 0 0 1 0 
