**ABCDEFGHIJKLMNOPQRSTUVWXYZabcdefghijklmnopqrstuvwxyz**************************
**PARASOLID !"#$%&'()*+,-./:;<=>?@[\]^_`{|}~0123456789**************************
**PART1;
MC=AMD64;
MC_MODEL=Intel64 Family 6 Model 60 Stepping 3, GenuineIntel;
MC_ID=unknown;
OS=Windows_NT;
OS_RELEASE=unknown;
FRU=Parasolid Version 29.0, build 201,  4-17-2017;
APPL=SOLIDWORKS 2017-2017317;
SITE=;
USER=unknown;
FORMAT=text;
GUISE=transmit;
KEY=Part1B;
FILE=Part1B.x_t;
DATE=Fri Apr 20 12:03:36 2018;
**PART2;
SCH=SCH_2900201_28101;
USFLD_SIZE=0;
**PART3;
**END_OF_HEADER*****************************************************************
T51 : TRANSMIT FILE created by modeller version 290020123 SCH_2900201_28101_1300
6203 0 12 33 CCCCCCI4 mesh1006 0 I8 polyline1008 0 CCCCCCCDI5 owner1040 0 CCCCCC
I13 boundary_mesh1006 0 I17 boundary_polyline1008 0 CCCA16 index_map_offset0 0 1
 dA9 index_map82 0 A17 node_id_index_map82 0 A20 schema_embedding_map82 0 A5 chi
ld12 0 A14 lowest_node_id0 0 1 dZ1 550 0 2 0 0 0 0 0 0 1e3 1e-8 0 3 0 1 0 1 1 4
 5 6 7 0 0 8 9 10 0 0 0 0 0 0 70 11 CI9 list_type0 0 1 uI10 notransmit0 0 1 lCCC
DCCDI12 finger_index0 0 1 dI12 finger_block1012 0 CZ2 0 4 T1 0 0 2 20 1 11 11 13
 255 4 174 0 1 0 12 0 0 13 0 50 255 5 165 0 12 14 0 0 +.01298972286218492 0 -.05
99139822900086 0 0 -1 -1 0 0 32 255 6 373 0 15 16 0 0 +-.0168445165457642 .005 -
.0559611276420093 -.637496782736761 0 -.770453017386705 -.770453017386705 0 .637
496782736761 .00392158841848197 .0025 29 255 7 126 0 17 18 0 .01298972286218492
 .01 -.0599139822900086 19 8 CCCCCCCA5 owner12 0 Z8 52 0 1 13 0 19 V0 16 255 9 1
34 0 ?20 0 21 22 0 0 1 18 255 10 49 0 23 0 24 25 ?1 17 255 23 0 26 27 28 10 20 9
 0 29 -18 24 46 0 30 10 31 32 ?1 29 25 51 0 10 32 33 .01298972286218492 0 -.0599
139822900086 29 32 48 0 24 34 25 .03190473718738335 0 -.04356704884432725 29 33
 133 0 35 25 36 .00298972286218493 .01 -.0599139822900086 18 35 116 0 37 38 39 3
3 ?1 29 36 131 0 38 33 40 -.002010277137815055 .01 -.0519611276420093 18 38 114
 0 41 42 35 36 ?1 29 40 130 0 42 36 43 -.00201027713781507 .01 -.059961127642009
3 18 42 113 0 44 45 38 40 ?1 29 43 129 0 45 40 46 -.01201027713781506 .01 -.0599
611276420093 18 45 112 0 47 48 42 43 ?1 29 46 128 0 48 43 18 -.0312716025724827
 .01 -.04402370807359025 18 48 111 0 49 50 45 46 ?1 29 18 127 0 50 46 7 .0319047
3718738335 .01 -.04356704884432725 18 50 110 0 51 17 48 18 ?1 17 51 0 52 53 54 5
0 30 21 0 55 +18 17 109 0 20 56 50 7 ?1 17 20 0 57 58 59 17 23 9 0 28 +18 56 28
 0 60 61 17 62 ?1 17 60 0 63 64 65 56 37 66 0 67 -18 61 37 0 68 69 56 70 ?1 29 6
2 30 0 56 71 70 .00298972286218493 0 -.0599139822900086 29 71 274 0 39 72 62 -.0
0201027713781506 0 -.0519611276420093 29 70 39 0 61 62 73 -.00201027713781507 0
 -.0599611276420093 29 73 42 0 69 70 34 -.01201027713781506 0 -.0599611276420093
 18 69 40 0 74 31 61 73 ?1 29 34 45 0 31 73 32 -.0312716025724827 0 -.0440237080
7359025 18 31 43 0 75 24 69 34 ?1 17 75 0 52 54 53 31 49 76 0 77 -15 255 52 144
 0 53 78 0 17 54 0 52 51 75 24 77 79 0 80 +17 53 0 52 75 51 48 55 81 0 82 -17 49
 0 83 84 85 48 75 76 0 53 +16 76 136 0 ?49 21 86 87 0 0 1 17 77 0 88 89 80 31 54
 79 0 85 -15 88 3 0 90 91 0 17 89 0 88 92 77 69 85 93 0 94 -17 80 0 88 77 29 24
 59 95 0 0 -16 79 22 0 ?54 95 93 96 0 0 1 17 85 0 83 49 74 31 89 93 0 0 +15 83 1
46 0 84 97 0 17 74 0 83 85 84 69 47 86 0 89 -16 93 19 0 ?85 79 98 99 0 0 1 16 98
 16 0 ?94 93 100 101 0 0 1 30 255 99 20 0 93 101 96 0 +-.01201027713781506 0 -.0
599611276420093 -.770453017386705 0 .637496782736761 30 101 17 0 98 102 99 0 +-.
00201027713781507 0 -.0599611276420093 -1 0 0 31 255 96 23 0 79 99 103 0 +0 0 0
 0 1 0 0 0 1 .054 30 103 26 0 95 96 104 0 +.03190473718738335 0 -.04356704884432
725 -.756600573007939 0 -.653877337827255 16 95 25 0 ?59 66 79 103 0 0 1 30 104
 125 0 105 103 106 0 +.01298972286218492 .01 -.0599139822900086 -1 0 0 16 105 10
5 0 ?107 108 109 104 0 0 1 30 106 124 0 108 104 110 0 +.00298972286218493 .01 -.
0599139822900086 162630325872826e-30 0 1 16 108 101 0 ?111 112 105 106 0 0 1 30
 110 122 0 112 106 113 0 +-.00201027713781506 .01 -.0519611276420093 -1246832498
35833e-29 0 -1 16 112 93 0 ?114 115 108 110 0 0 1 30 113 121 0 115 110 116 0 +-.
00201027713781507 .01 -.0599611276420093 -1 0 0 16 115 89 0 ?117 118 112 113 0 0
 1 30 116 120 0 118 113 119 0 +-.01201027713781506 .01 -.0599611276420093 -.7704
53017386705 0 .637496782736761 16 118 85 0 ?82 81 115 116 0 0 1 31 119 119 0 81
 116 120 0 +0 .01 0 0 1 0 0 0 1 .054 16 81 81 0 ?55 121 118 119 0 0 1 30 120 118
 0 121 119 22 0 +.03190473718738335 .01 -.04356704884432725 -.756600573007939 0
 -.653877337827255 16 121 77 0 ?122 123 81 120 0 0 1 30 22 166 0 9 120 124 0 +.0
1298972286218492 0 -.0599139822900086 0 1 0 30 124 167 0 21 22 87 0 +.0319047371
8738335 0 -.04356704884432725 0 1 0 16 21 135 0 ?51 9 76 124 0 0 1 30 87 168 0 7
6 124 125 0 +-.0312716025724827 0 -.04402370807359025 0 1 0 30 125 169 0 86 87 1
26 0 +-.01201027713781506 0 -.0599611276420093 0 1 0 16 86 137 0 ?47 76 127 125
 0 0 1 30 126 170 0 127 125 128 0 +-.00201027713781507 0 -.0599611276420093 0 1
 0 16 127 138 0 ?44 86 129 126 0 0 1 30 128 171 0 129 126 130 0 +-.0020102771378
15055 0 -.0519611276420093 0 1 0 16 129 139 0 ?41 127 131 128 0 0 1 30 130 172 0
 131 128 132 0 +.00298972286218493 0 -.0519139822900086 0 1 0 16 131 140 0 ?133
 129 66 130 0 0 1 30 132 173 0 66 130 16 0 +.00298972286218493 0 -.0599139822900
086 0 1 0 16 66 141 0 ?37 131 95 132 0 0 1 31 16 356 0 134 132 6 0 +.00298972286
218493 .005 -.0559611276420093 -1 0 162630325872826e-30 162630325872826e-30 0 1
 .0015 16 134 387 0 ?135 136 137 16 0 0 1 17 135 0 138 135 135 0 139 134 0 0 +16
 136 390 0 ?140 141 134 142 0 0 1 16 137 392 0 ?143 134 144 145 0 0 1 17 143 0 1
46 143 143 0 147 137 0 0 +16 144 393 0 ?148 137 0 149 0 0 1 31 145 447 0 137 149
 142 0 +-.00701027713781507 .005 -.0559611276420093 -1 0 16306400674182e-29 1630
6400674182e-29 0 1 .0015 31 149 448 0 144 0 145 0 +-.00701027713781507 .005 -.05
59611276420093 -1 0 16306400674182e-29 16306400674182e-29 0 1 .0025 32 142 445 0
 136 145 150 0 +.0175635655673492 .005 -.0559611276420093 .653877337827255 0 -.7
56600573007939 -.756600573007939 0 -.653877337827255 .00229400823858538 .0015 31
 150 444 0 141 142 151 0 +-.002010277137815065 .005 -.0559611276420093 1 0 -1246
83249835833e-29 -124683249835833e-29 0 -1 .0015 16 141 388 0 ?152 15 136 150 0 0
 1 31 151 273 0 153 150 154 0 +0 0 0 0 -1 0 0 0 -1 .052 16 153 247 0 ?155 109 15
 151 0 0 1 31 154 272 0 109 151 156 0 +0 .01 0 0 -1 0 0 0 -1 .052 16 109 246 0 ?
157 105 153 154 0 0 1 30 156 5 0 123 154 158 0 +.01298972286218492 0 -.059913982
2900086 -1 0 0 16 123 4 0 ?27 159 121 156 0 0 1 30 158 8 0 159 156 102 0 +.00298
972286218493 0 -.0599139822900086 162630325872826e-30 0 1 16 159 7 0 ?64 100 123
 158 0 0 1 30 102 14 0 100 158 101 0 +-.00201027713781506 0 -.0519611276420093 -
124683249835833e-29 0 -1 16 100 13 0 ?160 98 159 102 0 0 1 17 160 0 161 44 162 6
1 90 100 0 0 +15 161 150 0 163 164 0 17 44 0 161 163 160 42 68 127 0 165 +17 162
 0 161 160 163 39 41 129 0 90 -17 90 0 88 166 92 39 160 100 0 0 -17 166 0 88 67
 90 167 155 153 0 64 -17 92 0 88 90 89 61 94 98 0 160 -18 39 251 0 155 35 167 71
 ?1 17 155 0 168 41 169 39 166 153 0 162 +18 167 250 0 169 39 170 72 ?1 17 169 0
 168 155 171 167 133 131 0 166 -18 170 252 0 171 167 0 172 ?1 29 72 275 0 167 17
2 71 .00298972286218493 0 -.0519139822900086 29 172 277 0 170 0 72 .002989722862
18493 .01 -.0519139822900086 17 171 0 168 169 41 170 157 109 0 133 -15 168 258 0
 41 173 0 17 41 0 168 171 155 38 162 129 0 157 +17 157 0 174 114 111 38 171 109
 0 163 +17 133 0 63 65 64 170 169 131 0 111 +15 63 154 0 65 175 0 17 65 0 63 60
 133 35 111 108 0 107 -17 64 0 63 133 60 167 67 159 0 0 +17 111 0 174 157 107 17
0 65 108 0 0 +15 174 232 0 157 176 0 17 107 0 174 111 122 35 28 105 0 0 +17 122
 0 174 107 55 17 58 121 0 0 +17 28 0 26 23 37 17 107 105 0 122 -15 26 156 0 28 1
2 0 17 37 0 26 28 27 35 60 66 0 65 +17 27 0 26 37 23 56 29 123 0 0 +17 29 0 88 8
0 67 10 27 123 0 59 -17 67 0 88 29 166 56 64 159 0 27 -17 59 0 57 20 30 10 80 95
 0 0 +15 57 142 0 58 177 0 17 30 0 57 59 58 24 51 21 0 54 -17 58 0 57 30 20 50 1
22 121 0 0 -14 255 177 143 178 ?78 12 179 4 180 +0 0 78 12 19 81 255 1 178 537 1
81 177 182 0 0 183 184 14 78 145 183 ?97 177 52 4 185 +0 0 97 177 19 14 12 157 1
86 ?177 0 26 4 5 +0 0 177 0 19 15 179 363 0 187 177 57 50 180 158 0 177 188 185
 0 +.03190473718738335 0 -.04356704884432725 .653877337827255 0 -.75660057300793
9 -.756600573007939 0 -.653877337827255 13 19 53 0 0 0 0 0 0 8 12 50 188 117 0 1
76 189 180 0 +0 .01 0 0 1 0 0 0 1 51 255 185 159 0 78 180 190 0 +0 0 0 0 1 0 .05
4 0 0 1 50 190 160 0 97 185 191 0 +-.01201027713781506 0 -.0599611276420093 -.63
7496782736761 0 -.770453017386705 -.770453017386705 0 .637496782736761 14 97 147
 192 ?193 78 194 4 190 +0 0 193 78 19 50 191 161 0 193 190 195 0 +-.002010277137
81507 0 -.0599611276420093 0 0 -1 -1 0 0 14 193 149 196 ?164 97 197 4 191 +0 0 1
64 97 19 50 195 162 0 164 191 14 0 +-.00201027713781506 0 -.0519611276420093 1 0
 -124683249835833e-29 -124683249835833e-29 0 -1 14 164 151 198 ?175 193 199 4 19
5 +0 0 175 193 19 50 14 164 0 175 195 5 0 +.00298972286218493 0 -.05991398229000
86 -1 0 162630325872826e-30 162630325872826e-30 0 1 14 175 155 200 ?91 164 201 4
 14 +0 0 91 164 19 81 1 200 543 181 175 202 0 198 203 204 14 91 1 203 ?176 175 8
8 4 189 -0 0 176 175 19 15 201 355 0 139 175 63 17 139 0 201 139 139 0 135 134 0
 0 -81 1 203 544 181 91 205 0 200 206 207 14 176 75 206 ?173 91 174 4 188 +0 0 1
73 91 19 50 189 2 0 91 208 188 0 +0 0 0 0 1 0 0 0 1 51 208 267 0 173 209 189 0 +
0 .01 0 0 -1 0 .052 0 0 -1 14 173 256 210 ?211 176 168 4 208 -0 0 211 176 19 51
 209 441 0 211 212 208 0 +-.01986591617573235 .005 -.0559611276420093 -1 0 16306
400674182e-29 .0015 16306400674182e-29 0 1 14 211 422 213 ?214 173 215 4 209 -21
4 214 214 173 19 50 212 442 0 216 217 209 0 +-.00701027713781507 .0065 -.0559611
276420093 1 0 -16306400674182e-29 -16306400674182e-29 0 -1 14 216 427 218 ?219 2
14 220 4 212 -0 0 219 214 19 51 217 443 0 219 0 212 0 +-.01986591617573235 .005
 -.0559611276420093 -1 0 16306400674182e-29 .0025 16306400674182e-29 0 1 14 219
 432 221 ?0 216 222 4 217 -0 0 0 216 19 81 1 221 549 181 219 223 0 218 224 225 1
5 222 435 0 226 219 227 17 226 0 222 226 226 0 228 15 0 0 +15 227 436 0 229 219
 0 17 229 0 227 229 229 0 148 144 0 0 -17 148 0 230 148 148 0 229 144 0 0 +15 23
0 431 0 148 216 0 17 228 0 194 228 228 0 226 15 0 0 -16 15 386 0 ?226 153 141 6
 0 0 1 15 194 372 0 228 97 83 80 255 1 181 231 232 9000 1 1 1 1 1 1 1 1 0 FFFFTF
TFFFFFFF1 81 1 223 506 233 219 0 221 234 0 235 81 1 218 548 181 216 234 0 213 22
1 236 81 1 224 550 181 214 237 0 221 0 238 82 255 1 225 1571094712 14 214 409 22
4 ?216 211 239 4 209 -211 211 216 211 19 81 1 237 504 233 214 0 224 240 234 241
 82 1 238 1578827960 80 1 233 0 242 8001 0 0 0 0 3 5 0 0 0 FFFFTFTFFFFFFF2 81 1
 240 503 233 211 0 213 243 237 244 81 1 234 505 233 216 0 218 237 223 245 83 255
 3 241 .792156862745098 .819607843137255 .933333333333333 83 3 245 .792156862745
098 .819607843137255 .933333333333333 81 1 213 547 181 211 240 0 210 218 246 81
 1 243 502 233 173 0 210 247 240 248 83 3 244 .792156862745098 .819607843137255
 .933333333333333 81 1 210 546 181 173 243 0 206 213 249 81 1 247 501 233 176 0
 206 205 243 250 83 3 248 .792156862745098 .819607843137255 .933333333333333 81
 1 206 545 181 176 247 0 203 210 251 81 1 205 500 233 91 0 203 202 247 252 83 3
 250 .792156862745098 .819607843137255 .933333333333333 81 1 202 499 233 175 0 2
00 253 205 254 83 3 252 .792156862745098 .819607843137255 .933333333333333 81 1
 253 498 233 164 0 198 255 202 256 83 3 254 .792156862745098 .819607843137255 .9
33333333333333 81 1 198 542 181 164 253 0 196 200 257 81 1 255 497 233 193 0 196
 258 253 259 83 3 256 .792156862745098 .819607843137255 .933333333333333 81 1 19
6 541 181 193 255 0 192 198 260 81 1 258 496 233 97 0 192 261 255 262 83 3 259 .
792156862745098 .819607843137255 .933333333333333 81 1 192 540 181 97 258 0 186
 196 263 81 1 261 495 233 78 0 183 182 258 264 83 3 262 .792156862745098 .819607
843137255 .933333333333333 81 1 183 538 181 78 261 0 178 186 265 81 1 182 494 23
3 177 0 178 266 261 267 83 3 264 .792156862745098 .819607843137255 .933333333333
333 81 1 266 493 233 12 0 186 0 182 268 83 3 267 .792156862745098 .8196078431372
55 .933333333333333 81 1 186 539 181 12 266 0 183 192 269 83 3 268 .792156862745
098 .819607843137255 .933333333333333 82 1 269 1505624244 82 1 265 1504837812 82
 1 263 1504968888 82 1 260 1505099956 82 1 257 1505231032 82 1 251 1503002806 82
 1 249 1528692918 82 1 246 1572274360 79 255 15 242 SDL/TYSA_COLOUR15 239 412 0
 152 214 146 17 152 0 239 152 152 0 270 141 0 0 +15 146 413 0 143 214 0 17 270 0
 199 270 270 0 152 141 0 0 -15 199 380 0 270 164 161 82 1 236 1571684536 83 3 23
5 .792156862745098 .819607843137255 .933333333333333 79 14 232 SWEntUnchanged15
 220 430 0 147 216 230 17 147 0 220 147 147 0 143 137 0 0 -15 215 425 0 140 211
 138 17 140 0 215 140 140 0 187 136 0 0 +15 138 426 0 135 211 0 17 187 0 179 187
 187 0 140 136 0 0 -82 1 207 1492648118 82 1 204 1505493176 15 197 148 0 165 193
 0 17 165 0 197 68 47 42 117 115 0 114 -17 68 0 197 94 165 61 44 127 0 92 -17 47
 0 197 165 94 45 74 86 0 84 +17 117 0 174 82 114 45 165 115 0 0 +17 114 0 174 11
7 157 42 163 112 0 0 +17 163 0 161 162 44 38 114 112 0 0 -17 82 0 174 55 117 48
 84 118 0 0 +17 55 0 174 122 82 50 53 81 0 58 +17 84 0 83 74 49 45 82 118 0 117
 -17 94 0 197 47 68 69 92 98 0 0 +82 1 184 1504706744 19 13 175 0 1 0 8 4 S0 74
 4 CI16 index_map_offset0 0 1 dCCZ20 11 2 0 0 224 223 0 0 0 0 0 0 0 0 0 0 0 0 0
 0 0 0 0 0 1 0 
